<svg aria-hidden="true" style="width:0;height:0;position:absolute;overflow:hidden" xmlns="http://www.w3.org/2000/svg"><defs><symbol id="icon-untitled" viewBox="0 0 32 32"><path style="fill:var(--color1,#fff)" opacity=".25" d="M15.272 22.695c.064.055.133.109.2.163a8.16 8.16 0 0 1-4.552 1.373h-.016a8.225 8.225 0 0 1-8.225-8.225v-.007A8.233 8.233 0 0 1 15.498 9.16l-.03-.019c-.067.057-.133.109-.184.168A8.828 8.828 0 0 0 12.22 16a8.871 8.871 0 0 0 3.051 6.695zm5.813-14.927h-.015a8.147 8.147 0 0 0-4.568 1.392l.029-.019c.065.057.132.109.183.168A8.825 8.825 0 0 1 19.779 16a8.868 8.868 0 0 1-3.04 6.686l-.01.009-.201.163a8.143 8.143 0 0 0 4.547 1.373h.011-.001a8.23 8.23 0 1 0 0-16.462zM16 9.533a8.197 8.197 0 0 0-3.141 6.455V16v-.001.017a8.183 8.183 0 0 0 3.124 6.44l.017.013a8.204 8.204 0 0 0 3.143-6.459v-.012.001-.012a8.184 8.184 0 0 0-3.125-6.441l-.017-.013z"/></symbol><symbol id="icon-B" viewBox="0 0 32 32"><path style="fill:var(--color1,#fff)" opacity=".25" d="m15.937 11.759-.729 2.92c.825.205 3.372 1.045 3.784-.608.429-1.721-2.231-2.105-3.055-2.312zm-1.096 4.394-.804 3.22c.991.247 4.049 1.228 4.501-.588.473-1.896-2.707-2.385-3.697-2.632z"/><path style="fill:var(--color1,#fff)" opacity=".25" d="M19.227 3.065c-7.14-1.78-14.373 2.567-16.151 9.709-1.783 7.14 2.564 14.373 9.701 16.155 7.143 1.78 14.377-2.565 16.156-9.708 1.781-7.141-2.565-14.375-9.707-16.156zm2.656 11.034c-.193 1.299-.915 1.927-1.869 2.148 1.313.683 1.98 1.731 1.345 3.548-.789 2.255-2.664 2.445-5.16 1.973l-.605 2.427-1.461-.364.596-2.392c-.8-.189-1.191-.294-1.58-.402l.413.098-.6 2.405-1.459-.367.605-2.431c-.343-.088-.689-.181-1.043-.269L9.158 20l.729-1.675s1.077.287 1.063.265c.413.103.597-.167.669-.348l.959-3.833.153.039a1.213 1.213 0 0 0-.144-.048l-.008-.002.683-2.737c.017-.312-.088-.704-.681-.852.024-.013-1.063-.264-1.063-.264l.387-1.563 2.02.504-.001.007c.303.076.613.148.933.22l.599-2.403 1.463.364-.587 2.355c.392.089.787.18 1.172.276l.584-2.34 1.463.364-.6 2.403c1.847.64 3.196 1.593 2.932 3.367z"/></symbol><symbol id="icon-lock" viewBox="0 0 32 32"><path style="fill:var(--color1,#fff)" opacity=".25" d="M9.663 11.933c.305-.135.609-.24.913-.307.579-2.69 2.938-4.676 5.76-4.676s5.182 1.988 5.753 4.64l.007.039c.871.165 1.591.517 2.152 1.041a8.433 8.433 0 0 0-.066-1.514l.005.043c-.372-4.049-3.75-7.196-7.864-7.2-4.245 0-7.703 3.365-7.883 7.573a10.882 10.882 0 0 0-.018 1.157l-.001-.019a5.024 5.024 0 0 1 1.241-.779z"/><path style="fill:var(--color1,#fff)" opacity=".25" d="M20.945 12.531h-9.464c-.456 0-.928.105-1.413.323a3.906 3.906 0 0 0-1.16.747c-.587.707-.888 1.739-.909 3.096v7.397c.021 1.36.321 2.392.908 3.093.308.3.693.547 1.161.755.485.213.957.32 1.413.32h9.463c2.443-.021 3.687-1.363 3.725-4.013v-7.707c-.04-2.653-1.283-3.991-3.725-4.011z"/></symbol><symbol id="icon-PP" viewBox="0 0 32 32"><path style="fill:var(--color1,#fff)" opacity=".25" d="M26.072 12.651c.16.751.141 1.661-.053 2.735-.776 3.971-3.303 5.955-7.577 5.955h-.594a.888.888 0 0 0-.588.222l.001-.001a.959.959 0 0 0-.319.564l-.001.006-.053.252-.737 4.639-.028.201a.942.942 0 0 1-.328.567l-.002.001a.886.886 0 0 1-.587.221H11.832l-.028.001a.526.526 0 0 1-.413-.2l-.001-.001a.603.603 0 0 1-.12-.488l-.001.004c.08-.497.197-1.251.356-2.252.156-1 .275-1.752.356-2.252.08-.5.2-1.251.363-2.247.16-.997.283-1.747.36-2.247.045-.331.24-.495.579-.495h1.755c1.191.017 2.243-.076 3.167-.281 1.563-.349 2.845-.992 3.848-1.932.913-.849 1.604-1.949 2.08-3.297.216-.627.369-1.223.469-1.784.008-.055.019-.088.033-.099.011-.015.029-.019.047-.015a.49.49 0 0 1 .083.047c.699.531 1.139 1.255 1.307 2.176zm-2.304-3.782c0 .956-.205 2.011-.62 3.165-.716 2.083-2.063 3.491-4.049 4.224-1.011.359-2.136.544-3.38.567 0 .008-.401.009-1.205.009l-1.204-.009c-.896 0-1.423.427-1.583 1.285-.017.071-.397 2.44-1.14 7.105-.011.088-.064.136-.161.136H6.458a.63.63 0 0 1-.478-.219l-.001-.001a.624.624 0 0 1-.151-.524v.004L8.937 4.884a1.05 1.05 0 0 1 .366-.643l.002-.001c.182-.157.421-.253.683-.253h8.028c.304 0 .74.059 1.305.175a8.625 8.625 0 0 1 1.497.428c.957.365 1.688.917 2.193 1.649.505.736.757 1.609.757 2.629z"/></symbol><symbol id="icon-visa" viewBox="0 0 32 32"><path style="fill:var(--color1,#fff)" opacity=".25" d="M22.052 12.248a5.437 5.437 0 0 0-1.897-.335h-.04.002c-2.133 0-3.64 1.075-3.651 2.617-.013 1.133 1.071 1.772 1.891 2.151.841.389 1.123.635 1.12.983-.005.529-.672.769-1.292.769-.852 0-1.317-.119-2.033-.416l-.265-.124-.303 1.776c.519.216 1.453.401 2.419.417 2.268 0 3.751-1.068 3.768-2.709.019-.905-.568-1.589-1.803-2.155-.751-.367-1.216-.612-1.216-.984 0-.329.399-.681 1.232-.681a3.944 3.944 0 0 1 1.617.305l.2.089.303-1.716-.052.012zm5.536-.191h-1.667c-.519 0-.909.143-1.136.657l-3.205 7.261h2.268l.453-1.191 2.768.003c.065.279.265 1.188.265 1.188h2l-1.747-7.919zm-14.189-.066h2.161l-1.352 7.923h-2.159l1.349-7.925v.003zm-5.487 4.366.224 1.1 2.112-5.4h2.289l-3.401 7.908H6.853l-1.867-6.696a.456.456 0 0 0-.197-.264l-.002-.001a8.97 8.97 0 0 0-2.059-.772l-.063-.013.029-.167h3.48c.471.019.851.167.977.671l.76 3.639v-.004h.001zm17.009.808.861-2.216c-.011.024.177-.457.287-.755l.148.684.5 2.285-1.796.001z"/></symbol></defs></svg>