<svg aria-hidden="true" style="width:0;height:0;position:absolute;overflow:hidden" xmlns="http://www.w3.org/2000/svg"><defs><symbol id="icon-des" viewBox="0 0 32 32"><path fill="#fff" style="fill:var(--color1,#fff)" opacity=".25" d="M26.667 4H5.334a2.67 2.67 0 0 0-2.667 2.667v14.667a2.67 2.67 0 0 0 2.667 2.667h9.333v2.667h-4v2.667h10.667v-2.667h-4v-2.667h9.333a2.67 2.67 0 0 0 2.667-2.667V6.667A2.67 2.67 0 0 0 26.667 4zM5.333 18.667v-12h21.333l.003 12H5.333z"/></symbol><symbol id="icon-mob" viewBox="0 0 32 32"><path fill="#fff" style="fill:var(--color1,#fff)" opacity=".25" d="M22.333 2.667H9a2.67 2.67 0 0 0-2.667 2.667v21.333A2.67 2.67 0 0 0 9 29.334h13.333A2.67 2.67 0 0 0 25 26.667V5.334a2.67 2.67 0 0 0-2.667-2.667zM9 26.667V5.334h13.333l.003 21.333H9z"/><path fill="#fff" style="fill:var(--color1,#fff)" opacity=".25" d="M15.667 25.333a1.333 1.333 0 0 0 0-2.666 1.333 1.333 0 0 0 0 2.666z"/></symbol><symbol id="icon-tab" viewBox="0 0 32 32"><path fill="#fff" style="fill:var(--color1,#fff)" opacity=".25" d="M8 2.667a2.67 2.67 0 0 0-2.667 2.667v21.333A2.67 2.67 0 0 0 8 29.334h16a2.67 2.67 0 0 0 2.667-2.667V5.334A2.67 2.67 0 0 0 24 2.667H8zm0 20v-16h16l.003 16H8z"/></symbol></defs></svg>