<svg aria-hidden="true" style="width:0;height:0;position:absolute;overflow:hidden" xmlns="http://www.w3.org/2000/svg"><defs><symbol id="icon-Star1" viewBox="0 0 32 32"><path d="M15.414.918a.617.617 0 0 1 1.025-.002l.001.002 5.311 8.004a.616.616 0 0 0 .343.251l.004.001 9.254 2.578a.617.617 0 0 1 .316.976l.001-.001-5.972 7.525a.611.611 0 0 0-.132.41v-.001l.409 9.598.001.027a.615.615 0 0 1-.835.574l.004.001-9.001-3.355a.622.622 0 0 0-.435.001l.004-.001-9.001 3.354a.615.615 0 0 1-.83-.576l.001-.028v.001l.409-9.596.001-.026a.613.613 0 0 0-.134-.384l.001.001-5.973-7.526a.614.614 0 0 1 .312-.973l.004-.001 9.254-2.578a.623.623 0 0 0 .346-.25l.001-.002L15.416.92z"/></symbol><symbol id="icon-Star2" viewBox="0 0 33 32"><path stroke-width="1.231" stroke="#91bdff" opacity=".25" d="m16.578 1.258 5.311 8.005c.163.243.405.422.688.502l.009.002 9.253 2.577-5.972 7.525a1.221 1.221 0 0 0-.265.82v-.003l.407 9.598-9.001-3.354a1.234 1.234 0 0 0-.869.002l.008-.003-9.001 3.354.407-9.598.001-.053c0-.29-.1-.556-.268-.766l.002.003-5.972-7.525 9.253-2.577a1.24 1.24 0 0 0 .693-.5l.003-.004 5.312-8.005z"/></symbol></defs></svg>