<svg aria-hidden="true" style="position: absolute; width: 0; height: 0; overflow: hidden;" version="1.1" xmlns="http://www.w3.org/2000/svg" xmlns:xlink="http://www.w3.org/1999/xlink">
<defs>
<symbol id="icon-untitled" viewBox="0 0 32 32">
<path  style="fill: var(--color1, #fff)" opacity="0.25"d="M15.272 22.695c0.064 0.055 0.133 0.109 0.2 0.163-1.28 0.86-2.856 1.373-4.552 1.373-0.003 0-0.006 0-0.009 0h0c-0.002 0-0.004 0-0.007 0-4.543 0-8.225-3.683-8.225-8.225 0-0.002 0-0.004 0-0.006v0c0-0 0-0.001 0-0.001 0-4.547 3.686-8.233 8.233-8.233 1.697 0 3.275 0.514 4.586 1.394l-0.030-0.019c-0.067 0.057-0.133 0.109-0.184 0.168-1.881 1.63-3.063 4.022-3.064 6.691v0c0 2.567 1.111 5.007 3.051 6.695zM21.085 7.768c-0.004 0-0.009 0-0.015 0-1.692 0-3.263 0.513-4.568 1.392l0.029-0.019c0.065 0.057 0.132 0.109 0.183 0.168 1.881 1.63 3.065 4.022 3.065 6.691v0c-0.002 2.667-1.179 5.058-3.040 6.686l-0.010 0.009-0.201 0.163c1.278 0.86 2.853 1.373 4.547 1.373 0.004 0 0.007 0 0.011 0h-0.001c4.546 0 8.231-3.685 8.231-8.231s-3.685-8.231-8.231-8.231v0zM16 9.533c-1.92 1.515-3.141 3.843-3.141 6.455 0 0.004 0 0.008 0 0.012v-0.001c0 0.005-0 0.011-0 0.017 0 2.612 1.221 4.939 3.124 6.44l0.017 0.013c1.921-1.517 3.143-3.845 3.143-6.459 0-0.004 0-0.008 0-0.012v0.001c0-0.004 0-0.008 0-0.012 0-2.613-1.222-4.94-3.125-6.441l-0.017-0.013z"></path>
</symbol>
<symbol id="icon-B" viewBox="0 0 32 32">
<path  style="fill: var(--color1, #fff)" opacity="0.25" d="M15.937 11.759l-0.729 2.92c0.825 0.205 3.372 1.045 3.784-0.608 0.429-1.721-2.231-2.105-3.055-2.312zM14.841 16.153l-0.804 3.22c0.991 0.247 4.049 1.228 4.501-0.588 0.473-1.896-2.707-2.385-3.697-2.632z"></path>
<path  style="fill: var(--color1, #fff)"  opacity="0.25" d="M19.227 3.065c-7.14-1.78-14.373 2.567-16.151 9.709-1.783 7.14 2.564 14.373 9.701 16.155 7.143 1.78 14.377-2.565 16.156-9.708 1.781-7.141-2.565-14.375-9.707-16.156zM21.883 14.099c-0.193 1.299-0.915 1.927-1.869 2.148 1.313 0.683 1.98 1.731 1.345 3.548-0.789 2.255-2.664 2.445-5.16 1.973l-0.605 2.427-1.461-0.364 0.596-2.392c-0.8-0.189-1.191-0.294-1.58-0.402l0.413 0.098-0.6 2.405-1.459-0.367 0.605-2.431c-0.343-0.088-0.689-0.181-1.043-0.269l-1.907-0.473 0.729-1.675s1.077 0.287 1.063 0.265c0.413 0.103 0.597-0.167 0.669-0.348l0.959-3.833 0.153 0.039c-0.041-0.017-0.092-0.034-0.144-0.048l-0.008-0.002 0.683-2.737c0.017-0.312-0.088-0.704-0.681-0.852 0.024-0.013-1.063-0.264-1.063-0.264l0.387-1.563 2.020 0.504-0.001 0.007c0.303 0.076 0.613 0.148 0.933 0.22l0.599-2.403 1.463 0.364-0.587 2.355c0.392 0.089 0.787 0.18 1.172 0.276l0.584-2.34 1.463 0.364-0.6 2.403c1.847 0.64 3.196 1.593 2.932 3.367z"></path>
</symbol>
<symbol id="icon-lock" viewBox="0 0 32 32">
<path  style="fill: var(--color1, #fff)" opacity="0.25" d="M9.663 11.933c0.305-0.135 0.609-0.24 0.913-0.307 0.579-2.69 2.938-4.676 5.76-4.676s5.182 1.988 5.753 4.64l0.007 0.039c0.871 0.165 1.591 0.517 2.152 1.041 0.006-0.115 0.009-0.249 0.009-0.384 0-0.383-0.025-0.76-0.075-1.13l0.005 0.043c-0.372-4.049-3.75-7.196-7.864-7.2h-0c-4.245 0-7.703 3.365-7.883 7.573-0.016 0.225-0.025 0.487-0.025 0.752 0 0.136 0.002 0.271 0.007 0.405l-0.001-0.019c0.356-0.301 0.764-0.571 1.241-0.779z"></path>
<path  style="fill: var(--color1, #fff)" opacity="0.25" d="M20.945 12.531h-9.464c-0.456 0-0.928 0.105-1.413 0.323-0.469 0.205-0.853 0.452-1.16 0.747-0.587 0.707-0.888 1.739-0.909 3.096v7.397c0.021 1.36 0.321 2.392 0.908 3.093 0.308 0.3 0.693 0.547 1.161 0.755 0.485 0.213 0.957 0.32 1.413 0.32h9.463c2.443-0.021 3.687-1.363 3.725-4.013v-7.707c-0.040-2.653-1.283-3.991-3.725-4.011z"></path>
</symbol>
<symbol id="icon-PP" viewBox="0 0 32 32">
<path  style="fill: var(--color1, #fff)" opacity="0.25" d="M26.072 12.651c0.16 0.751 0.141 1.661-0.053 2.735-0.776 3.971-3.303 5.955-7.577 5.955h-0.589c-0.002 0-0.003-0-0.005-0-0.225 0-0.431 0.084-0.588 0.222l0.001-0.001c-0.165 0.143-0.281 0.34-0.319 0.564l-0.001 0.006-0.053 0.252-0.737 4.639-0.028 0.201c-0.040 0.23-0.159 0.427-0.328 0.567l-0.002 0.001c-0.156 0.137-0.361 0.221-0.587 0.221-0.003 0-0.007-0-0.010-0h-3.364c-0.008 0-0.018 0.001-0.028 0.001-0.167 0-0.316-0.078-0.413-0.2l-0.001-0.001c-0.081-0.102-0.13-0.233-0.13-0.376 0-0.038 0.004-0.076 0.010-0.112l-0.001 0.004c0.080-0.497 0.197-1.251 0.356-2.252 0.156-1 0.275-1.752 0.356-2.252 0.080-0.5 0.2-1.251 0.363-2.247 0.16-0.997 0.283-1.747 0.36-2.247 0.045-0.331 0.24-0.495 0.579-0.495h1.755c1.191 0.017 2.243-0.076 3.167-0.281 1.563-0.349 2.845-0.992 3.848-1.932 0.913-0.849 1.604-1.949 2.080-3.297 0.216-0.627 0.369-1.223 0.469-1.784 0.008-0.055 0.019-0.088 0.033-0.099 0.011-0.015 0.029-0.019 0.047-0.015 0.029 0.013 0.056 0.028 0.083 0.047 0.699 0.531 1.139 1.255 1.307 2.176zM23.768 8.869c0 0.956-0.205 2.011-0.62 3.165-0.716 2.083-2.063 3.491-4.049 4.224-1.011 0.359-2.136 0.544-3.38 0.567 0 0.008-0.401 0.009-1.205 0.009l-1.204-0.009c-0.896 0-1.423 0.427-1.583 1.285-0.017 0.071-0.397 2.44-1.14 7.105-0.011 0.088-0.064 0.136-0.161 0.136h-3.953c-0.004 0-0.009 0-0.015 0-0.191 0-0.362-0.085-0.478-0.219l-0.001-0.001c-0.099-0.11-0.16-0.257-0.16-0.419 0-0.036 0.003-0.071 0.009-0.105l-0 0.004 3.109-19.727c0.042-0.261 0.176-0.485 0.366-0.643l0.002-0.001c0.182-0.157 0.421-0.253 0.683-0.253 0.003 0 0.006 0 0.010 0h8.018c0.304 0 0.74 0.059 1.305 0.175 0.571 0.112 1.067 0.259 1.497 0.428 0.957 0.365 1.688 0.917 2.193 1.649 0.505 0.736 0.757 1.609 0.757 2.629z"></path>
</symbol>
<symbol id="icon-visa" viewBox="0 0 32 32">
<path  style="fill: var(--color1, #fff)"  opacity="0.25" d="M22.052 12.248c-0.564-0.212-1.216-0.335-1.897-0.335-0.013 0-0.027 0-0.040 0h0.002c-2.133 0-3.64 1.075-3.651 2.617-0.013 1.133 1.071 1.772 1.891 2.151 0.841 0.389 1.123 0.635 1.12 0.983-0.005 0.529-0.672 0.769-1.292 0.769-0.852 0-1.317-0.119-2.033-0.416l-0.265-0.124-0.303 1.776c0.519 0.216 1.453 0.401 2.419 0.417 2.268 0 3.751-1.068 3.768-2.709 0.019-0.905-0.568-1.589-1.803-2.155-0.751-0.367-1.216-0.612-1.216-0.984 0-0.329 0.399-0.681 1.232-0.681 0.555-0.013 1.107 0.091 1.617 0.305l0.2 0.089 0.303-1.716-0.052 0.012zM27.588 12.057h-1.667c-0.519 0-0.909 0.143-1.136 0.657l-3.205 7.261h2.268l0.453-1.191 2.768 0.003c0.065 0.279 0.265 1.188 0.265 1.188h2l-1.747-7.919zM13.399 11.991h2.161l-1.352 7.923h-2.159l1.349-7.925v0.003zM7.912 16.357l0.224 1.1 2.112-5.4h2.289l-3.401 7.908h-2.283l-1.867-6.696c-0.032-0.113-0.103-0.205-0.197-0.264l-0.002-0.001c-0.61-0.323-1.317-0.592-2.059-0.772l-0.063-0.013 0.029-0.167h3.48c0.471 0.019 0.851 0.167 0.977 0.671l0.76 3.639v-0.004h0.001zM24.921 17.165l0.861-2.216c-0.011 0.024 0.177-0.457 0.287-0.755l0.148 0.684 0.5 2.285-1.796 0.001z"></path>
</symbol>
</defs>
</svg>
