<svg aria-hidden="true" style="position:absolute;width:0;height:0;overflow:hidden" xmlns="http://www.w3.org/2000/svg"><defs><symbol id="icon-mobile" viewBox="0 0 26 32"><path fill="#fff3d9" style="fill:var(--color1, #fff3d9)" d="M5.143 18.654c.763-1.448-.586-2.55-.989-2.654-.065-.017-.303-.062-.348-.018-.054.363.092.969.798 1.967l.017.025c.049.07.101.141.156.215.087.115.202.242.289.361l.071.095.007.009z"/><path fill="#3e4758" style="fill:var(--color2, #3e4758)" d="M26.462 29.995A2.005 2.005 0 0 1 24.457 32H10.437a2.002 2.002 0 0 1-2.002-2.002V2.005C8.435.898 9.332.001 10.439 0h14.02c1.106 0 2.003.897 2.003 2.003V29.995z"/><path fill="#d388cd" style="fill:var(--color3, #d388cd)" d="M25.222 2.231H9.674v25.348h15.548V2.231z"/><path fill="#ff5e4c" style="fill:var(--color4, #ff5e4c)" d="M17.804 1.175a.356.356 0 0 1-.712 0 .356.356 0 0 1 .712 0z"/><path fill="#8095b2" style="fill:var(--color5, #8095b2)" d="M17.448 30.742a.96.96 0 1 0 0-1.922.96.96 0 1 0 0 1.922z"/><path fill="#b060b2" style="fill:var(--color6, #b060b2)" d="M21.256 5.823a.895.895 0 0 1 .191.515h.005v12.934c0 .383-.237.71-.571.845l-.006.002c-.014.007-.031.009-.045.015-.038.012-.074.025-.116.034-.058.01-.117.017-.176.017h-3.223v4.77l2.62 2.622h5.288V9.791l-3.966-3.969z"/><path fill="#904296" style="fill:var(--color7, #904296)" d="M21.953 6.844a.903.903 0 0 0-.192-.517l.001.002-.164-.164a.858.858 0 0 0-.212-.123l-.006-.002c.04.097.063.199.067.303h.005v12.929c0 .383-.237.71-.571.845l-.006.002c-.014.007-.031.009-.045.015-.038.012-.074.025-.116.034-.058.01-.117.017-.176.017h-3.223v4.77l.506.506v-4.768h3.222c.06 0 .119-.005.177-.015.042-.009.078-.023.117-.034.014-.006.031-.009.044-.015a.913.913 0 0 0 .578-.847V6.842l-.006.002z"/><path fill="#fff" style="fill:var(--color8, #fff)" d="M21.447 6.338a.91.91 0 0 0-.298-.63l-.001-.001a.892.892 0 0 0-.612-.242H.913a.91.91 0 0 0-.598.234l-.009.008a.966.966 0 0 0-.228.295 1.16 1.16 0 0 0-.06.18.966.966 0 0 0-.017.151V19.271a.91.91 0 0 0 .325.691l.001.001.009.008a.907.907 0 0 0 .58.217h12.422l3.977 4.77v-4.77h3.223c.059 0 .119-.005.177-.015.041-.009.078-.022.116-.034.014-.006.031-.008.044-.015a.913.913 0 0 0 .578-.847V6.336l-.006.003z"/><path fill="#ff5e4d" style="fill:var(--color9, #ff5e4d)" d="M14.273 8.697a2.765 2.765 0 0 0-1.323-.357h-.002c-.857 0-1.618.478-2.225 1.381-.607-.9-1.376-1.371-2.234-1.369-.488.01-.943.144-1.336.371l.013-.007c-1.673.911-2.124 2.783-1.205 5.016.882 2.142 3.788 3.557 4.571 3.902l.191.084.217-.092c.78-.348 3.695-1.773 4.565-3.919.906-2.239.446-4.111-1.232-5.01z"/><path fill="#ea332f" style="fill:var(--color10, #ea332f)" d="M14.273 8.697a2.76 2.76 0 0 0-1.322-.357h-.002a2.269 2.269 0 0 0-1.265.39l.008-.005c.086-.011.172-.017.258-.017.488.008.944.139 1.339.365l-.014-.007c1.677.898 2.137 2.772 1.23 5.01-.7 1.721-2.722 2.985-3.893 3.593l.11.049.217-.092c.78-.348 3.695-1.773 4.565-3.919.908-2.239.447-4.111-1.231-5.01z"/></symbol><symbol id="icon-money" viewBox="0 0 28 32"><path fill="#252525" style="fill:var(--color11, #252525)" opacity=".7" d="m.805 10.591.025.033-.026-.033zm-.227-.521c0 .039.025.076.037.112-.011-.037-.026-.072-.037-.112zm.087.264c0 .029.033.057.048.087-.014-.029-.037-.058-.048-.087zm0 1.677c.02.047.041.093.065.137a1.202 1.202 0 0 1-.063-.147l-.003-.009v.018zm.14 1.872v.025s.003-.033 0-.043v.018zm-.227-.517c0 .044.029.087.044.134-.014-.065-.033-.108-.044-.152v.018zm.087.264c.018.04.039.078.062.116a.842.842 0 0 1-.06-.128l-.002-.006v.018zm-.087 1.377c0 .039.029.083.04.123-.01-.058-.029-.101-.04-.141v.018zm.087.264c0 .036.037.069.055.104-.018-.054-.04-.087-.055-.123v.018zm-.047 1.471c0-.04-.029-.08-.04-.12.011.022.025.062.04.102v.018zm.267.503a1 1 0 0 1-.078-.101l-.002-.004c.025.03.052.059.08.087v.018zm-.3 1.203c.013.048.029.095.048.141a1.052 1.052 0 0 1-.053-.133l-.002-.008h.007zm.088.264c.021.048.046.093.073.137a.925.925 0 0 1-.078-.131l-.003-.006h.007zm.139 1.872a.28.28 0 0 1 .025.035l.001.001a.282.282 0 0 0-.033-.036h.007zm-.234-.502c0 .039.029.083.04.123a.652.652 0 0 0-.041-.127l.002.004zm.087.263c0 .037.04.073.059.109-.018-.051-.044-.087-.059-.123v.014zm-.087 1.391c0 .04.025.08.037.116-.011-.047-.026-.087-.037-.127v.011zm.087.265a.892.892 0 0 0 .055.101.952.952 0 0 1-.053-.106l-.002-.006v.011zm.14 1.873zm-.14-.272v.004-.003zm-.087 1.395a.809.809 0 0 0 .048.141.966.966 0 0 1-.047-.149l-.001-.006v.014zm.087.264c.021.048.046.094.073.137a1.03 1.03 0 0 1-.071-.145l-.002-.007v.014zm2.926 3.445.278.061-.27-.061h-.007zm-.439-.12zm-1.551-.713.106.065-.091-.058-.015-.007zm-.343-.258.132.102a.876.876 0 0 1-.132-.102zm-.22-.209zm-.416-.678c0-.043-.033-.083-.044-.127.011.044.029.084.044.127zm.109.257c-.022-.039-.048-.08-.065-.119.018.04.043.098.065.119zm1.098 1.032.241.127-.242-.127zm.76.359c.106.044.219.08.333.119-.114-.039-.227-.083-.333-.119zm1.897.485c.114.018.231.029.344.044-.114-.014-.231-.025-.344-.044zm-.511-.086z"/><path fill="#f5bc18" style="fill:var(--color12, #f5bc18)" d="M17.688 20.914v.051c0 1.467-2.512 2.659-5.608 2.659s-5.593-1.189-5.601-2.651v1.195c0 1.467 2.508 2.659 5.601 2.659s5.608-1.191 5.608-2.658v-1.254z"/><path fill="#eda121" style="fill:var(--color13, #eda121)" d="M6.84 21.893v1.195c.235.285.518.526.837.714v-1.185a3.15 3.15 0 0 1-.833-.719l-.005-.006zm2.004 2.434c.274.093.554.171.837.235v-1.195a7.387 7.387 0 0 1-.89-.251l.053.016v1.195zm2.003.423c.27.029.549.051.833.058v-1.195c-.285 0-.563-.029-.833-.059v1.195zm2 .04c.289 0 .567-.044.837-.084v-1.195c-.27.04-.549.069-.837.087v1.192zm2.004-.319a7.88 7.88 0 0 0 .837-.276V23a8.194 8.194 0 0 1-.837.276v1.195zm2.003-2.111v1.195a1.847 1.847 0 0 0 .837-1.39v-1.199c-.021.281-.107.553-.253.795s-.345.447-.584.599z"/><path fill="#fce68e" style="fill:var(--color14, #fce68e)" d="M12.083 23.381c-3.009 0-5.462-1.127-5.597-2.535v.123c0 1.467 2.511 2.659 5.604 2.659s5.609-1.192 5.609-2.659v-.123c-.15 1.409-2.603 2.535-5.616 2.535z"/><path fill="#f69221" style="fill:var(--color15, #f69221)" d="M11.509 19.614v-.206h.731v.206c.651.061.98.297.98.674v.087h-.848v-.116c0-.196-.165-.272-.457-.272s-.457.076-.457.272c0 .569 1.788.594 1.788 1.384 0 .362-.34.612-.991.677v.199h-.731v-.199c-.658-.065-.986-.304-.986-.677v-.188h.862v.214c0 .199.183.268.475.268s.472-.069.472-.268c0-.566-1.784-.594-1.784-1.38-.014-.374.307-.609.947-.674z"/><path fill="#fcbc17" style="fill:var(--color16, #fcbc17)" d="M11.915 19.614v-.206h.731v.206c.647.061.98.297.98.674v.087h-.83v-.116c0-.196-.165-.272-.457-.272s-.457.076-.457.272c0 .569 1.784.594 1.784 1.384 0 .362-.34.612-.987.677v.199h-.731v-.199c-.658-.065-.991-.304-.991-.677v-.188h.863v.214c0 .199.183.268.475.268s.472-.069.472-.268c0-.566-1.784-.594-1.784-1.38-.014-.374.293-.609.933-.674z"/><path fill="#f5bc18" style="fill:var(--color12, #f5bc18)" d="M17.688 19.299v.048c0 1.47-2.512 2.658-5.608 2.658s-5.59-1.198-5.597-2.648v1.192c0 1.471 2.508 2.659 5.601 2.659s5.608-1.189 5.608-2.659v-1.251h-.004z"/><path fill="#eda121" style="fill:var(--color13, #eda121)" d="M6.84 20.284v1.199c.235.279.519.516.837.699v-1.195a3.11 3.11 0 0 1-.833-.698l-.004-.005zm2.004 2.427c.274.091.554.169.837.232v-1.195a8.86 8.86 0 0 1-.837-.217v1.181zm2.003.424c.27.029.549.051.833.058v-1.195c-.285 0-.563-.029-.833-.059v1.196zm2 .04c.289 0 .567-.047.837-.083v-1.199c-.27.036-.549.065-.837.083v1.199zm2.004-.323c.285-.074.564-.167.837-.275v-1.195c-.273.11-.553.202-.837.279v1.192zm2.003-2.108v1.195a1.828 1.828 0 0 0 .837-1.39v-1.192a1.78 1.78 0 0 1-.259.799l.004-.008a1.819 1.819 0 0 1-.576.591l-.007.004z"/><path fill="#fce68e" style="fill:var(--color14, #fce68e)" d="M12.083 21.762c-3.009 0-5.462-1.123-5.597-2.536v.119c0 1.471 2.511 2.659 5.604 2.659s5.601-1.199 5.601-2.648v-.119c-.143 1.402-2.596 2.525-5.608 2.525z"/><path fill="#f69221" style="fill:var(--color15, #f69221)" d="M11.509 17.995v-.203h.731v.202c.651.065.98.3.98.674v.087h-.848v-.123c0-.199-.165-.272-.457-.272s-.457.072-.457.272c0 .565 1.788.594 1.788 1.38 0 .362-.34.616-.991.677v.202h-.731v-.202c-.658-.061-.986-.3-.986-.677v-.188h.862v.217c0 .196.183.268.475.268s.472-.072.472-.268c0-.568-1.784-.594-1.784-1.383-.014-.359.307-.594.947-.663z"/><path fill="#fcbc17" style="fill:var(--color16, #fcbc17)" d="M11.915 17.995v-.203h.731v.202c.647.065.98.3.98.674v.087h-.83v-.123c0-.199-.165-.272-.457-.272s-.457.072-.457.272c0 .565 1.784.594 1.784 1.38 0 .362-.34.616-.987.677v.202h-.731v-.202c-.658-.061-.991-.3-.991-.677v-.188h.863v.217c0 .196.183.268.475.268s.472-.072.472-.268c0-.568-1.784-.594-1.784-1.383-.014-.359.293-.594.933-.663z"/><path fill="#f5bc18" style="fill:var(--color12, #f5bc18)" d="M17.688 17.658v.047c0 1.471-2.512 2.659-5.608 2.659s-5.593-1.185-5.601-2.648v1.195c0 1.449 2.508 2.655 5.601 2.655s5.608-1.189 5.608-2.655v-1.254z"/><path fill="#eda121" style="fill:var(--color13, #eda121)" d="M6.84 18.632v1.196c.234.285.518.526.837.714v-1.185a3.15 3.15 0 0 1-.833-.719l-.005-.006zm2.004 2.438c.274.091.554.169.837.232V20.11a9.218 9.218 0 0 1-.905-.255l.067.02v1.195zm2.003.424c.27.029.549.05.833.057v-1.195a7.76 7.76 0 0 1-.833-.058v1.195zm2 .036c.289 0 .567-.047.837-.084v-1.195c-.27.04-.549.065-.837.084v1.195zm2.004-.315c.284-.077.564-.169.837-.276v-1.195a8.188 8.188 0 0 1-.837.275v1.195zm2.003-2.112v1.195c.47-.302.79-.805.837-1.385v-1.208a1.802 1.802 0 0 1-.837 1.398z"/><path fill="#fce68e" style="fill:var(--color14, #fce68e)" d="M12.083 20.125c-3.009 0-5.462-1.127-5.597-2.536v.119c0 1.471 2.511 2.659 5.604 2.659s5.609-1.189 5.609-2.659v-.119c-.15 1.405-2.603 2.536-5.616 2.536z"/><path fill="#f69221" style="fill:var(--color15, #f69221)" d="M11.509 16.357v-.206h.731v.206c.651.062.98.297.98.674v.084h-.848v-.112c0-.199-.165-.272-.457-.272s-.457.072-.457.272c0 .565 1.788.594 1.788 1.384 0 .362-.34.612-.991.673v.202h-.731v-.202c-.658-.061-.986-.3-.986-.673v-.192h.862v.217c0 .199.183.268.475.268s.472-.069.472-.268c0-.568-1.784-.594-1.784-1.38-.014-.373.307-.609.947-.674z"/><path fill="#fcbc17" style="fill:var(--color16, #fcbc17)" d="M11.915 16.357v-.206h.731v.206c.647.062.98.297.98.674v.084h-.83v-.112c0-.199-.165-.272-.457-.272s-.457.072-.457.272c0 .565 1.784.594 1.784 1.384 0 .362-.34.612-.987.673v.202h-.731v-.202c-.658-.061-.991-.3-.991-.673v-.192h.863v.217c0 .199.183.268.475.268s.472-.069.472-.268c0-.568-1.784-.594-1.784-1.38-.014-.373.293-.609.933-.674z"/><path fill="#f5bc18" style="fill:var(--color12, #f5bc18)" d="M17.688 16.039v.05c0 1.467-2.512 2.659-5.608 2.659s-5.59-1.184-5.597-2.651v1.192c0 1.449 2.508 2.659 5.601 2.659s5.608-1.192 5.608-2.659v-1.25h-.004z"/><path fill="#eda121" style="fill:var(--color13, #eda121)" d="M6.84 17.028v1.195c.234.28.511.514.822.695l.015.008v-1.195a3.11 3.11 0 0 1-.833-.698l-.004-.005zm2.004 2.423c.274.095.554.173.837.235v-1.195a8.31 8.31 0 0 1-.837-.221v1.181zm2.003.428c.27.029.549.047.833.057v-1.195a7.76 7.76 0 0 1-.833-.058v1.195zm2 .039c.289 0 .567-.047.837-.087v-1.2c-.27.036-.549.065-.837.083v1.204zm2.004-.322c.285-.074.564-.167.837-.275v-1.195c-.273.108-.553.2-.837.274v1.196zm2.003-2.108v1.195a1.834 1.834 0 0 0 .837-1.394v-1.192a1.81 1.81 0 0 1-.837 1.391z"/><path fill="#fce68e" style="fill:var(--color14, #fce68e)" d="M12.083 18.506c-3.009 0-5.462-1.123-5.597-2.536v.12c0 1.467 2.511 2.659 5.604 2.659s5.601-1.202 5.601-2.651v-.12c-.143 1.405-2.596 2.529-5.608 2.529z"/><path fill="#f69221" style="fill:var(--color15, #f69221)" d="M11.509 14.738v-.202h.731v.202c.651.065.98.3.98.674v.087h-.848v-.127c0-.199-.165-.272-.457-.272s-.457.072-.457.272c0 .565 1.788.594 1.788 1.38 0 .362-.34.616-.991.677v.203h-.731v-.202c-.658-.061-.986-.304-.986-.677v-.188h.862v.217c0 .196.183.268.475.268s.472-.072.472-.268c0-.568-1.784-.594-1.784-1.383-.014-.355.307-.59.947-.66z"/><path fill="#fcbc17" style="fill:var(--color16, #fcbc17)" d="M11.915 14.738v-.202h.731v.202c.647.065.98.3.98.674v.087h-.83v-.127c0-.199-.165-.272-.457-.272s-.457.072-.457.272c0 .565 1.784.594 1.784 1.38 0 .362-.34.616-.987.677v.203h-.731v-.202c-.658-.061-.991-.304-.991-.677v-.188h.863v.217c0 .196.183.268.475.268s.472-.072.472-.268c0-.568-1.784-.594-1.784-1.383-.014-.355.293-.59.933-.66z"/><path fill="#f5bc18" style="fill:var(--color12, #f5bc18)" d="M17.688 14.38v.046c0 1.471-2.512 2.659-5.608 2.659s-5.593-1.184-5.601-2.648v1.195c0 1.449 2.508 2.655 5.601 2.655s5.608-1.189 5.608-2.655v-1.253z"/><path fill="#eda121" style="fill:var(--color13, #eda121)" d="M6.84 15.372v1.195c.237.279.52.516.837.699v-1.198a3.179 3.179 0 0 1-.834-.691l-.004-.004zm2.004 2.42c.274.093.554.17.837.232v-1.202a8.227 8.227 0 0 1-.897-.254l.06.018v1.206zm2.003.424c.27.029.549.047.833.058v-1.195c-.285 0-.563-.029-.833-.059v1.195zm2 .054c.289-.018.567-.047.837-.083v-1.195c-.27.036-.549.065-.837.086v1.192zm2.004-.333a7.88 7.88 0 0 0 .837-.276v-1.202a8.188 8.188 0 0 1-.837.275v1.203zm2.003-2.112v1.195a1.847 1.847 0 0 0 .837-1.39v-1.204a1.802 1.802 0 0 1-.837 1.398z"/><path fill="#fce68e" style="fill:var(--color14, #fce68e)" d="M12.083 16.846c-3.009 0-5.462-1.127-5.597-2.535v.12c0 1.471 2.511 2.658 5.604 2.658s5.609-1.187 5.609-2.658v-.12c-.15 1.424-2.603 2.535-5.616 2.535z"/><path fill="#f69221" style="fill:var(--color15, #f69221)" d="M11.509 13.079v-.206h.731v.206c.651.061.98.297.98.67v.087h-.848v-.112c0-.196-.165-.272-.457-.272s-.457.076-.457.272c0 .569 1.788.594 1.788 1.384 0 .362-.34.612-.991.677v.199h-.731v-.199c-.658-.065-.986-.304-.986-.677v-.192h.862v.217c0 .199.183.268.475.268s.472-.069.472-.268c0-.569-1.784-.594-1.784-1.384-.014-.37.307-.605.947-.67z"/><path fill="#fcbc17" style="fill:var(--color16, #fcbc17)" d="M11.915 13.079v-.206h.731v.206c.647.061.98.297.98.67v.087h-.83v-.112c0-.196-.165-.272-.457-.272s-.457.076-.457.272c0 .569 1.784.594 1.784 1.384 0 .362-.34.612-.987.677v.199h-.731v-.199c-.658-.065-.991-.304-.991-.677v-.192h.863v.217c0 .199.183.268.475.268s.472-.069.472-.268c0-.569-1.784-.594-1.784-1.384-.014-.37.293-.605.933-.67z"/><path fill="#f5bc18" style="fill:var(--color12, #f5bc18)" d="M17.688 12.761v.05c0 1.471-2.512 2.659-5.608 2.659s-5.59-1.185-5.597-2.634v1.192c0 1.467 2.508 2.659 5.601 2.659s5.608-1.192 5.608-2.658v-1.268h-.004z"/><path fill="#eda121" style="fill:var(--color13, #eda121)" d="M6.84 13.75v1.195c.235.282.518.521.837.703v-1.195a3.11 3.11 0 0 1-.833-.698l-.004-.005zm2.004 2.426c.274.091.554.169.837.232v-1.195a8.278 8.278 0 0 1-.897-.249l.06.018v1.195zm2.003.425c.27.028.549.046.833.057v-1.195c-.285 0-.563-.029-.833-.059V16.6zm2 .039c.289 0 .567-.047.837-.087v-1.181c-.27.036-.549.065-.837.083v1.185zm2.004-.323c.285-.074.564-.167.837-.275v-1.195a8.211 8.211 0 0 1-.837.279v1.192zm2.003-2.108v1.195a1.84 1.84 0 0 0 .838-1.394v-1.199a1.798 1.798 0 0 1-.837 1.398z"/><path fill="#fce68e" style="fill:var(--color14, #fce68e)" d="M12.083 15.227c-3.009 0-5.462-1.123-5.597-2.536v.12c0 1.471 2.511 2.659 5.604 2.659s5.601-1.185 5.601-2.659v-.12c-.143 1.413-2.596 2.536-5.608 2.536z"/><path fill="#f69221" style="fill:var(--color15, #f69221)" d="M11.509 11.461v-.203h.731v.202c.651.065.98.3.98.674v.087h-.848v-.108c0-.196-.165-.268-.457-.268s-.457.072-.457.268c0 .568 1.788.598 1.788 1.384 0 .362-.34.616-.991.677v.202h-.731v-.202c-.658-.061-.986-.3-.986-.677v-.189h.862v.217c0 .196.183.268.475.268s.472-.072.472-.268c0-.568-1.784-.594-1.784-1.384-.014-.391.307-.612.947-.681z"/><path fill="#fcbc17" style="fill:var(--color16, #fcbc17)" d="M11.915 11.461v-.203h.731v.202c.647.065.98.3.98.674v.087h-.83v-.108c0-.196-.165-.268-.457-.268s-.457.072-.457.268c0 .568 1.784.598 1.784 1.384 0 .362-.34.616-.987.677v.202h-.731v-.202c-.658-.061-.991-.3-.991-.677v-.189h.863v.217c0 .196.183.268.475.268s.472-.072.472-.268c0-.568-1.784-.594-1.784-1.384-.014-.391.293-.612.933-.681z"/><path fill="#f5bc18" style="fill:var(--color12, #f5bc18)" d="M17.688 10.917v.05c0 1.471-2.512 2.659-5.608 2.659s-5.593-1.184-5.601-2.648v1.192c0 1.471 2.508 2.658 5.601 2.658s5.608-1.187 5.608-2.658v-1.254z"/><path fill="#eda121" style="fill:var(--color13, #eda121)" d="M6.84 11.905v1.196c.235.282.518.52.837.703v-1.195a3.11 3.11 0 0 1-.833-.698l-.004-.005zm2.004 2.428c.274.091.554.169.837.232V13.37a8.278 8.278 0 0 1-.897-.249l.06.018v1.195zm2.003.424c.27.029.549.047.833.058V13.62c-.285 0-.563-.029-.833-.059v1.195zm2 .039c.289 0 .567-.047.837-.084v-1.194c-.27.036-.549.065-.837.084v1.195zm2.004-.322c.285-.074.564-.167.837-.275v-1.195c-.273.108-.553.2-.837.274v1.196zm2.003-2.108v1.195a1.84 1.84 0 0 0 .838-1.394v-1.199a1.802 1.802 0 0 1-.837 1.398z"/><path fill="#fce68e" style="fill:var(--color14, #fce68e)" d="M12.083 13.384c-3.009 0-5.462-1.123-5.597-2.536v.12c0 1.471 2.511 2.659 5.604 2.659s5.609-1.188 5.609-2.658v-.12c-.15 1.413-2.603 2.536-5.616 2.536z"/><path fill="#f69221" style="fill:var(--color15, #f69221)" d="M11.509 9.616v-.202h.731v.202c.651.065.98.3.98.674v.087h-.848v-.112c0-.199-.165-.272-.457-.272s-.457.072-.457.272c0 .566 1.788.594 1.788 1.38 0 .362-.34.616-.991.678v.202h-.731v-.202c-.658-.062-.986-.304-.986-.678v-.188h.862v.217c0 .196.183.268.475.268s.472-.072.472-.268c0-.569-1.784-.594-1.784-1.384-.014-.351.307-.605.947-.674z"/><path fill="#fcbc17" style="fill:var(--color16, #fcbc17)" d="M11.915 9.616v-.202h.731v.202c.647.065.98.3.98.674v.087h-.83v-.112c0-.199-.165-.272-.457-.272s-.457.072-.457.272c0 .566 1.784.594 1.784 1.38 0 .362-.34.616-.987.678v.202h-.731v-.202c-.658-.062-.991-.304-.991-.678v-.188h.863v.217c0 .196.183.268.475.268s.472-.072.472-.268c-.033-.569-1.799-.594-1.799-1.373 0-.362.307-.616.947-.685z"/><path fill="#f5bc18" style="fill:var(--color12, #f5bc18)" d="M17.688 9.302v.05c0 1.467-2.512 2.659-5.608 2.659S6.487 10.826 6.479 9.36v1.195c0 1.449 2.508 2.659 5.601 2.659s5.608-1.192 5.608-2.659V9.301z"/><path fill="#eda121" style="fill:var(--color13, #eda121)" d="M6.84 10.301v1.195c.235.278.519.513.837.692v-1.195a3.115 3.115 0 0 1-.834-.688l-.004-.004zm2.004 2.413c.274.094.554.173.837.235V11.75a7.387 7.387 0 0 1-.89-.251l.053.016v1.199zm2.003.424c.27.033.549.05.833.061v-1.195c-.285 0-.563-.029-.833-.059v1.192zm2 .06c.289-.018.567-.046.837-.086v-1.195c-.27.039-.549.069-.837.087v1.195zm2.004-.339a7.19 7.19 0 0 0 .837-.276v-1.195a8.188 8.188 0 0 1-.837.275v1.195zm2.003-2.109v1.195a1.834 1.834 0 0 0 .837-1.394V9.353a1.819 1.819 0 0 1-.254.796 1.848 1.848 0 0 1-.576.597l-.007.004z"/><path fill="#fce68e" style="fill:var(--color14, #fce68e)" d="M12.083 11.768c-3.009 0-5.462-1.123-5.597-2.536v.123c0 1.467 2.511 2.659 5.604 2.659s5.609-1.192 5.609-2.659v-.123c-.15 1.431-2.603 2.536-5.616 2.536z"/><path fill="#f69221" style="fill:var(--color15, #f69221)" d="M11.509 8.001v-.203h.731V8c.651.062.98.301.98.674v.087h-.848v-.116c0-.196-.165-.272-.457-.272s-.457.076-.457.272c0 .568 1.788.598 1.788 1.384 0 .362-.34.616-.991.677v.199h-.731v-.199c-.658-.061-.986-.304-.986-.677V9.84h.862v.217c0 .196.183.264.475.264s.472-.069.472-.264c0-.568-1.784-.594-1.784-1.384-.014-.37.307-.605.947-.673z"/><path fill="#fcbc17" style="fill:var(--color16, #fcbc17)" d="M11.915 8.001v-.203h.731V8c.647.062.98.301.98.674v.087h-.83v-.116c0-.196-.165-.272-.457-.272s-.457.076-.457.272c0 .568 1.784.598 1.784 1.384 0 .362-.34.616-.987.677v.199h-.731v-.199c-.658-.061-.991-.304-.991-.677V9.84h.863v.217c0 .196.183.264.475.264s.472-.069.472-.264c0-.568-1.784-.594-1.784-1.384-.014-.37.293-.605.933-.673z"/><path fill="#f5bc18" style="fill:var(--color12, #f5bc18)" d="M17.688 7.66v.051c0 1.449-2.512 2.659-5.608 2.659S6.487 9.185 6.479 7.723v1.195c0 1.467 2.508 2.659 5.601 2.659s5.608-1.192 5.608-2.659V7.661z"/><path fill="#eda121" style="fill:var(--color13, #eda121)" d="M6.84 8.649v1.195c.235.281.519.519.837.703V9.352a3.11 3.11 0 0 1-.833-.698l-.004-.005zm2.004 2.427c.274.091.554.17.837.232v-1.195a7.568 7.568 0 0 1-.89-.252l.053.016v1.199zm2.003.424c.27.029.549.047.833.057v-1.195a7.76 7.76 0 0 1-.833-.058v1.195zm2 .04a9.9 9.9 0 0 0 .837-.087v-1.191c-.27.036-.549.065-.837.083v1.195zm2.004-.322a7.19 7.19 0 0 0 .837-.276V9.747c-.273.108-.553.2-.837.276v1.195zm2.003-2.108v1.192a1.843 1.843 0 0 0 .837-1.395V7.712a1.802 1.802 0 0 1-.837 1.398z"/><path fill="#fce68e" style="fill:var(--color14, #fce68e)" d="M12.083 10.127c-3.009 0-5.462-1.123-5.597-2.535v.12c0 1.449 2.511 2.659 5.604 2.659s5.609-1.192 5.609-2.659v-.12c-.15 1.413-2.603 2.535-5.616 2.535z"/><path fill="#f69221" style="fill:var(--color15, #f69221)" d="M11.509 6.36v-.206h.731v.206c.651.061.98.3.98.674v.087h-.848v-.116c0-.196-.165-.268-.457-.268s-.457.072-.457.268c0 .569 1.788.598 1.788 1.385 0 .362-.34.615-.991.677v.202h-.731v-.202c-.658-.061-.986-.304-.986-.677v-.188h.862v.217c0 .196.183.268.475.268s.472-.072.472-.268c0-.568-1.784-.598-1.784-1.383-.014-.355.307-.605.947-.674z"/><path fill="#fcbc17" style="fill:var(--color16, #fcbc17)" d="M11.915 6.36v-.206h.731v.206c.647.061.98.3.98.674v.087h-.83v-.116c0-.196-.165-.268-.457-.268s-.457.072-.457.268c0 .569 1.784.598 1.784 1.385 0 .362-.34.615-.987.677v.202h-.731v-.202c-.658-.061-.991-.304-.991-.677v-.188h.863v.217c0 .196.183.268.475.268s.472-.072.472-.268c-.033-.568-1.799-.598-1.799-1.376 0-.362.307-.613.947-.681z"/><path fill="#f5bc18" style="fill:var(--color12, #f5bc18)" d="M17.688 6.045v.051c0 1.467-2.512 2.659-5.608 2.659S6.487 7.567 6.479 6.104V7.3c0 1.448 2.508 2.655 5.601 2.655s5.608-1.189 5.608-2.655V6.046z"/><path fill="#eda121" style="fill:var(--color13, #eda121)" d="M6.84 7.041v1.195c.237.278.521.513.837.696V7.737a3.204 3.204 0 0 1-.837-.696zm2.004 2.416c.274.093.554.172.837.235V8.49a8.227 8.227 0 0 1-.897-.254l.06.018v1.202zm2.003.424c.27.029.549.051.833.058V8.744c-.285 0-.563-.029-.833-.059v1.196zm2 .058c.289-.022.567-.047.837-.087V8.657c-.27.039-.549.069-.837.087v1.195zm2.004-.337c.284-.076.564-.168.837-.275V8.128a8.188 8.188 0 0 1-.837.275v1.199zm2.003-2.111v1.195a1.826 1.826 0 0 0 .838-1.391V6.096a1.822 1.822 0 0 1-.83 1.39l-.007.004z"/><path fill="#fce68e" style="fill:var(--color14, #fce68e)" d="M12.083 8.512c-3.009 0-5.462-1.127-5.597-2.536v.123c0 1.467 2.511 2.658 5.604 2.658s5.609-1.191 5.609-2.658v-.124c-.15 1.427-2.603 2.536-5.616 2.536z"/><path fill="#f69221" style="fill:var(--color15, #f69221)" d="M11.509 4.745v-.206h.731v.206c.651.062.98.297.98.674v.087h-.848V5.39c0-.196-.165-.272-.457-.272s-.457.076-.457.272c0 .568 1.788.594 1.788 1.383 0 .362-.34.613-.991.677v.203h-.731v-.202c-.658-.065-.986-.304-.986-.678v-.188h.862v.214c0 .199.183.268.475.268s.472-.069.472-.268c0-.565-1.784-.594-1.784-1.38-.014-.373.307-.609.947-.674z"/><path fill="#fcbc17" style="fill:var(--color16, #fcbc17)" d="M11.915 4.745v-.206h.731v.206c.647.062.98.297.98.674v.087h-.83V5.39c0-.196-.165-.272-.457-.272s-.457.076-.457.272c0 .568 1.784.594 1.784 1.383 0 .362-.34.613-.987.677v.203h-.731v-.202c-.658-.065-.991-.304-.991-.678v-.188h.863v.214c0 .199.183.268.475.268s.472-.069.472-.268c0-.565-1.784-.594-1.784-1.38-.014-.373.293-.609.933-.674z"/><path fill="#f5bc18" style="fill:var(--color12, #f5bc18)" d="M17.688 4.382v.051c0 1.449-2.512 2.659-5.608 2.659S6.487 5.908 6.479 4.445V5.63c0 1.449 2.508 2.658 5.601 2.658s5.608-1.191 5.608-2.658V4.383z"/><path fill="#eda121" style="fill:var(--color13, #eda121)" d="M6.84 5.371v1.195c.235.281.519.519.837.703V6.074a3.11 3.11 0 0 1-.833-.698l-.004-.005zm2.004 2.427c.274.091.554.169.837.232V6.835a8.278 8.278 0 0 1-.897-.249l.06.018v1.195zm2.003.424c.27.029.549.047.833.058V7.085c-.285 0-.563-.029-.833-.059v1.195zm2 .04a9.9 9.9 0 0 0 .837-.087V6.983c-.27.037-.549.065-.837.084v1.195zm2.004-.323c.285-.074.564-.167.837-.275V6.469c-.273.108-.553.2-.837.274v1.196zm2.003-2.107v1.209a1.843 1.843 0 0 0 .837-1.395V4.433a1.802 1.802 0 0 1-.837 1.398z"/><path fill="#fce68e" style="fill:var(--color14, #fce68e)" d="M12.083 6.849c-3.009 0-5.462-1.123-5.597-2.536v.12c0 1.449 2.511 2.659 5.604 2.659s5.609-1.191 5.609-2.658v-.12c-.15 1.413-2.603 2.536-5.616 2.536z"/><path fill="#f69221" style="fill:var(--color15, #f69221)" d="M11.509 3.082v-.203h.731v.202c.651.065.98.3.98.674v.087h-.848v-.116c0-.196-.165-.268-.457-.268s-.457.072-.457.268c0 .568 1.788.598 1.788 1.383 0 .362-.34.616-.991.678v.202h-.731v-.202c-.658-.062-.986-.304-.986-.678v-.188h.862v.217c0 .196.183.268.475.268s.472-.072.472-.268c0-.569-1.784-.598-1.784-1.384-.014-.37.307-.605.947-.674z"/><path fill="#fcbc17" style="fill:var(--color16, #fcbc17)" d="M11.915 3.082v-.203h.731v.202c.647.065.98.3.98.674v.087h-.83v-.116c0-.196-.165-.268-.457-.268s-.457.072-.457.268c0 .568 1.784.598 1.784 1.383 0 .362-.34.616-.987.678v.202h-.731v-.202c-.658-.062-.991-.304-.991-.678v-.188h.863v.217c0 .196.183.268.475.268s.472-.072.472-.268c0-.569-1.784-.598-1.784-1.384-.014-.37.293-.605.933-.674z"/><path fill="#f5bc18" style="fill:var(--color12, #f5bc18)" d="M17.688 2.767v.05c0 1.467-2.512 2.659-5.608 2.659S6.49 4.287 6.483 2.825V4.02c0 1.449 2.508 2.659 5.601 2.659s5.608-1.192 5.608-2.659V2.766h-.004z"/><path fill="#eda121" style="fill:var(--color13, #eda121)" d="M6.84 3.756v1.195c.236.281.52.518.837.703V4.459a3.218 3.218 0 0 1-.833-.698l-.004-.005zm2.004 2.423c.274.094.554.173.837.235V5.229a8.237 8.237 0 0 1-.897-.253l.06.018v1.185zm2.003.423c.27.029.549.051.833.062V5.465a7.76 7.76 0 0 1-.833-.058v1.195zm2 .044a9.9 9.9 0 0 0 .837-.087V5.364c-.27.039-.549.069-.837.087v1.195zm2.004-.33c.284-.076.564-.168.837-.275V4.867c-.273.108-.553.2-.837.275v1.174zm2.003-2.104v1.195c.47-.302.79-.805.837-1.385V2.817c-.021.281-.107.554-.253.795s-.345.447-.584.599z"/><path fill="#fce68e" style="fill:var(--color14, #fce68e)" d="M12.083 5.23c-3.009 0-5.462-1.126-5.597-2.535v.123c0 1.467 2.511 2.659 5.604 2.659s5.609-1.192 5.609-2.659v-.123c-.15 1.413-2.603 2.535-5.616 2.535z"/><path fill="#f69221" style="fill:var(--color15, #f69221)" d="M11.509 1.467v-.221h.731v.206c.651.062.98.297.98.674v.087h-.848v-.101c0-.196-.165-.272-.457-.272s-.457.076-.457.272c0 .583 1.788.583 1.788 1.384 0 .362-.34.612-.991.677v.199h-.731v-.199c-.658-.065-.986-.304-.986-.677v-.192h.862v.217c0 .199.183.268.475.268s.472-.069.472-.268c0-.566-1.784-.594-1.784-1.381-.014-.373.307-.609.947-.673z"/><path fill="#fcbc17" style="fill:var(--color16, #fcbc17)" d="M11.915 1.467v-.221h.731v.206c.647.062.98.297.98.674v.087h-.83v-.101c0-.196-.165-.272-.457-.272s-.457.076-.457.272c-.018.583 1.766.583 1.766 1.384 0 .362-.34.612-.987.677v.199h-.731v-.199c-.658-.065-.991-.304-.991-.677v-.192h.863v.217c0 .199.183.268.475.268s.472-.069.472-.268c-.014-.566-1.78-.594-1.78-1.381 0-.373.307-.609.947-.673z"/><path fill="#f5bc18" style="fill:var(--color12, #f5bc18)" d="m11.206 25.732.001.025a.265.265 0 0 1-.002.027v-.001c0 1.467-2.508 2.655-5.605 2.655-3.096 0-5.601-1.184-5.601-2.648v1.174c0 1.449 2.508 2.655 5.605 2.655s5.605-1.174 5.605-2.655v-1.232h-.003z"/><path fill="#eda121" style="fill:var(--color13, #eda121)" d="M.366 26.721v1.195c.235.281.517.518.833.703v-1.195a3.221 3.221 0 0 1-.829-.699l-.004-.005zm1.996 2.416c.274.092.554.17.837.235v-1.195a9.27 9.27 0 0 1-.837-.235v1.195zm2.003.431c.274.029.552.05.837.058v-1.195a7.65 7.65 0 0 1-.837-.059v1.195zm2.004.043c.285-.022.563-.05.837-.087v-1.195c-.274.036-.552.065-.837.084v1.198zm2.003-.322c.283-.077.563-.169.837-.276v-1.195a8.528 8.528 0 0 1-.837.275v1.195zm2-2.112v1.195a1.808 1.808 0 0 0 .838-1.391v-1.199c-.02.281-.106.553-.252.795s-.346.447-.585.599zm.834-1.445.001.025a.265.265 0 0 1-.002.027v-.052z"/><path fill="#fce68e" style="fill:var(--color14, #fce68e)" d="M5.605 28.199c-3.009 0-5.466-1.128-5.605-2.54v.123c0 1.467 2.508 2.655 5.605 2.655s5.605-1.188 5.605-2.655v-.123c-.139 1.413-2.596 2.539-5.605 2.539z"/><path fill="#f69221" style="fill:var(--color15, #f69221)" d="M5.027 24.428v-.206h.749v.206c.647.062.98.297.98.674v.084h-.862v-.112c0-.196-.168-.272-.457-.272s-.457.076-.457.272c0 .568 1.784.594 1.784 1.383 0 .362-.34.613-.987.674v.196h-.749v-.203c-.655-.061-.987-.3-.987-.674v-.192h.863v.217c0 .199.183.268.475.268s.471-.057.471-.257c0-.565-1.784-.594-1.784-1.38 0-.374.322-.609.962-.678z"/><path fill="#fcbc17" style="fill:var(--color16, #fcbc17)" d="M5.433 24.428v-.206h.749v.206c.647.062.98.297.98.674v.084h-.867v-.112c0-.196-.165-.272-.457-.272s-.453.076-.453.272c0 .568 1.784.594 1.784 1.383 0 .362-.34.613-.987.674v.196h-.75v-.203c-.654-.061-.987-.3-.987-.674v-.192h.862v.217c0 .199.183.268.476.268.292 0 .471-.069.471-.268 0-.565-1.784-.594-1.784-1.38 0-.362.321-.598.961-.666z"/><path fill="#f5bc18" style="fill:var(--color12, #f5bc18)" d="m11.206 24.113.001.025-.001.026v-.001c0 1.471-2.508 2.659-5.605 2.659C2.505 26.822 0 25.637 0 24.174v1.192c0 1.467 2.508 2.659 5.605 2.659s5.605-1.192 5.605-2.659v-1.254h-.003z"/><path fill="#eda121" style="fill:var(--color13, #eda121)" d="M.366 25.102v1.195c.232.281.513.52.829.703v-1.195a3.058 3.058 0 0 1-.825-.698l-.004-.005zm1.996 2.427c.274.091.554.169.837.232v-1.195a8.641 8.641 0 0 1-.837-.232v1.195zm2.003.423c.274.029.552.047.837.058v-1.195a7.65 7.65 0 0 1-.837-.059v1.196zm2.004.04c.285 0 .563-.047.837-.087v-1.192c-.274.037-.552.065-.837.084v1.195zm2.003-.304c.284-.075.564-.167.837-.275v-1.195a8.288 8.288 0 0 1-.837.278v1.192zm2-2.127v1.195a1.8 1.8 0 0 0 .837-1.385v-1.208a1.806 1.806 0 0 1-.837 1.398zm.834-1.448.001.025-.001.026V24.113z"/><path fill="#fce68e" style="fill:var(--color14, #fce68e)" d="M5.605 26.58C2.596 26.58.139 25.453 0 24.044v.119c0 1.471 2.508 2.659 5.605 2.659s5.605-1.189 5.605-2.659v-.119c-.139 1.409-2.596 2.536-5.605 2.536z"/><path fill="#f69221" style="fill:var(--color15, #f69221)" d="M5.027 22.812v-.195h.749v.202c.647.065.98.301.98.674v.087h-.862v-.112c0-.199-.168-.272-.457-.272s-.457.073-.457.272c0 .566 1.784.594 1.784 1.381 0 .362-.34.616-.987.677v.202h-.749v-.214c-.655-.061-.987-.304-.987-.677v-.188h.863v.217c0 .196.183.268.475.268s.471-.072.471-.268c0-.568-1.784-.594-1.784-1.383 0-.366.322-.601.962-.67z"/><path fill="#fcbc17" style="fill:var(--color16, #fcbc17)" d="M5.433 22.812v-.195h.749v.202c.647.065.98.301.98.674v.087h-.867v-.112c0-.199-.165-.272-.457-.272s-.453.073-.453.272c0 .566 1.784.594 1.784 1.381 0 .362-.34.616-.987.677v.202h-.75v-.214c-.654-.061-.987-.304-.987-.677v-.188h.862v.217c0 .196.183.268.476.268.292 0 .471-.072.471-.268 0-.568-1.784-.594-1.784-1.383 0-.366.321-.601.961-.67z"/><path fill="#f5bc18" style="fill:var(--color12, #f5bc18)" d="m11.206 22.472.001.025-.001.027v-.001c0 1.471-2.508 2.659-5.605 2.659C2.505 25.182 0 23.997 0 22.534v1.17c0 1.471 2.508 2.659 5.605 2.659s5.605-1.174 5.605-2.659v-1.232h-.003z"/><path fill="#eda121" style="fill:var(--color13, #eda121)" d="M.366 23.461v1.195c.233.282.516.52.833.703v-1.196a3.076 3.076 0 0 1-.829-.698l-.004-.005zm1.996 2.416c.274.091.554.169.837.232v-1.195a8.936 8.936 0 0 1-.837-.232v1.195zm2.003.435c.274.029.552.047.837.057v-1.195c-.285 0-.563-.029-.837-.058v1.195zm2.004.039c.285 0 .563-.047.837-.083v-1.195c-.274.036-.552.065-.837.083v1.195zm2.003-.319c.284-.076.564-.17.837-.279v-1.195a8.294 8.294 0 0 1-.837.279v1.195zm2-2.111v1.195a1.808 1.808 0 0 0 .838-1.391v-1.202a1.802 1.802 0 0 1-.837 1.398zm.834-1.449.001.025-.001.027v-.052z"/><path fill="#fce68e" style="fill:var(--color14, #fce68e)" d="M5.605 24.938c-3.009 0-5.466-1.123-5.597-2.535v.119c0 1.471 2.508 2.659 5.604 2.659s5.605-1.189 5.605-2.659v-.119c-.146 1.413-2.603 2.535-5.612 2.535z"/><path fill="#f69221" style="fill:var(--color15, #f69221)" d="M5.027 21.168v-.202h.749v.202c.647.065.98.3.98.674v.087h-.862v-.108c0-.199-.168-.272-.457-.272s-.457.072-.457.272c0 .565 1.784.594 1.784 1.38 0 .362-.34.616-.987.677v.189h-.749v-.203c-.655-.061-.987-.304-.987-.677v-.189h.863v.217c0 .196.183.268.475.268s.471-.072.471-.268c0-.568-1.784-.594-1.784-1.384 0-.355.322-.59.962-.663z"/><path fill="#fcbc17" style="fill:var(--color16, #fcbc17)" d="M5.433 21.168v-.202h.749v.202c.647.065.98.3.98.674v.087h-.867v-.108c0-.199-.165-.272-.457-.272s-.453.072-.453.272c0 .565 1.784.594 1.784 1.38 0 .362-.34.616-.987.677v.189h-.75v-.203c-.654-.061-.987-.304-.987-.677v-.189h.862v.217c0 .196.183.268.476.268.292 0 .471-.072.471-.268 0-.568-1.784-.594-1.784-1.384 0-.355.321-.59.961-.663z"/><path fill="#f5bc18" style="fill:var(--color12, #f5bc18)" d="m11.206 20.856.001.025-.001.027v-.001c0 1.449-2.508 2.659-5.605 2.659C2.505 23.566 0 22.382 0 20.915v1.192c0 1.449 2.508 2.659 5.605 2.659s5.605-1.192 5.605-2.659v-1.25h-.003z"/><path fill="#eda121" style="fill:var(--color13, #eda121)" d="M.366 21.845v1.195c.233.283.516.52.833.703v-1.195a3.076 3.076 0 0 1-.829-.698l-.004-.005zm1.996 2.427c.274.091.554.169.837.232v-1.195a7.683 7.683 0 0 1-.892-.253l.055.017v1.199zm2.003.424c.274.029.552.047.837.057v-1.195c-.285 0-.563-.029-.837-.058v1.195zm2.004.04c.285 0 .563-.047.837-.087v-1.195a10.26 10.26 0 0 1-.837.086v1.195zm2.003-.308c.284-.075.564-.167.837-.275v-1.211a7.73 7.73 0 0 1-.837.276v1.209zm2-2.126V23.5c.473-.301.794-.806.837-1.389v-1.204c-.02.281-.106.553-.252.795s-.346.447-.585.599zm.834-1.446.001.025-.001.027v-.052z"/><path fill="#fce68e" style="fill:var(--color14, #fce68e)" d="M5.605 23.341c-3.009 0-5.466-1.143-5.605-2.535v.119c0 1.448 2.508 2.658 5.605 2.658s5.605-1.191 5.605-2.658v-.119c-.139 1.391-2.596 2.535-5.605 2.535z"/><path fill="#f69221" style="fill:var(--color15, #f69221)" d="M5.027 19.556v-.199h.749v.206c.647.062.98.3.98.674v.087h-.862v-.112c0-.199-.168-.276-.457-.276s-.457.076-.457.276c0 .565 1.784.594 1.784 1.38 0 .362-.34.616-.987.678v.199h-.749v-.214c-.655-.061-.987-.304-.987-.677v-.188h.863v.217c0 .196.183.268.475.268s.471-.073.471-.268c0-.569-1.784-.594-1.784-1.384 0-.362.322-.598.962-.666z"/><path fill="#fcbc17" style="fill:var(--color16, #fcbc17)" d="M5.433 19.556v-.199h.749v.206c.647.062.98.3.98.674v.087h-.867v-.112c0-.199-.165-.276-.457-.276s-.453.076-.453.276c0 .565 1.784.594 1.784 1.38 0 .362-.34.616-.987.678v.199h-.75v-.214c-.654-.061-.987-.304-.987-.677v-.188h.862v.217c0 .196.183.268.476.268.292 0 .471-.073.471-.268 0-.569-1.784-.594-1.784-1.384 0-.362.321-.598.961-.666z"/><path fill="#f5bc18" style="fill:var(--color12, #f5bc18)" d="m11.206 19.193.001.025-.001.027v-.001c0 1.471-2.508 2.659-5.605 2.659C2.505 21.904 0 20.719 0 19.255v1.188c0 1.449 2.508 2.655 5.605 2.655s5.605-1.189 5.605-2.655v-1.249h-.003z"/><path fill="#eda121" style="fill:var(--color13, #eda121)" d="M.366 20.183v1.195c.233.282.516.52.833.703v-1.195a3.076 3.076 0 0 1-.829-.698l-.004-.005zm1.996 2.434c.274.091.554.169.837.232v-1.195a8.641 8.641 0 0 1-.837-.232v1.195zm2.003.416c.274.029.552.05.837.058v-1.199a7.65 7.65 0 0 1-.837-.059v1.2zm2.004.04c.285 0 .563-.046.837-.083v-1.195c-.274.036-.552.065-.837.084v1.195zm2.003-.318c.283-.077.563-.169.837-.276V21.28a8.294 8.294 0 0 1-.837.279v1.195zm2-2.112v1.195a1.81 1.81 0 0 0 .837-1.394v-1.199a1.802 1.802 0 0 1-.837 1.398zm.834-1.45.001.025-.001.027v-.052z"/><path fill="#fce68e" style="fill:var(--color14, #fce68e)" d="M5.605 21.664c-3.009 0-5.466-1.127-5.605-2.539v.119c0 1.471 2.508 2.648 5.605 2.648s5.605-1.189 5.605-2.659v-.119c-.139 1.424-2.596 2.55-5.605 2.55z"/><path fill="#f69221" style="fill:var(--color15, #f69221)" d="M5.027 17.908v-.217h.749v.217c.647.065.98.3.98.673v.087h-.862v-.112c0-.199-.168-.272-.457-.272s-.457.073-.457.272c0 .566 1.784.594 1.784 1.384 0 .362-.34.612-.987.673v.193h-.749v-.202c-.655-.062-.987-.301-.987-.675v-.21h.863v.217c0 .196.183.268.475.268s.471-.072.471-.268c0-.566-1.784-.594-1.784-1.384 0-.355.322-.59.962-.644z"/><path fill="#fcbc17" style="fill:var(--color16, #fcbc17)" d="M5.433 17.908v-.217h.749v.217c.647.065.98.3.98.673v.087h-.867v-.112c0-.199-.165-.272-.457-.272s-.453.073-.453.272c0 .566 1.784.594 1.784 1.384 0 .362-.34.612-.987.673v.193h-.75v-.202c-.654-.062-.987-.301-.987-.675v-.21h.862v.217c0 .196.183.268.476.268.292 0 .471-.072.471-.268 0-.566-1.784-.594-1.784-1.384 0-.355.321-.59.961-.644z"/><path fill="#f5bc18" style="fill:var(--color12, #f5bc18)" d="m11.206 17.578.001.025-.001.026v-.001c0 1.467-2.508 2.659-5.605 2.659C2.505 20.287 0 19.102 0 17.638v1.192c0 1.471 2.508 2.659 5.605 2.659S11.21 20.3 11.21 18.83v-1.254h-.003z"/><path fill="#eda121" style="fill:var(--color13, #eda121)" d="M.366 18.567v1.196c.233.282.516.52.833.703v-1.195c-.324-.19-.6-.424-.829-.698l-.004-.005zm1.996 2.427c.274.091.554.169.837.232v-1.195a7.551 7.551 0 0 1-.892-.252l.055.017v1.198zm2.003.424c.274.029.552.047.837.058v-1.195a7.65 7.65 0 0 1-.837-.059v1.196zm2.004.04c.285 0 .563-.047.837-.083v-1.199a10.72 10.72 0 0 1-.837.087v1.195zm2.003-.322c.284-.076.564-.168.837-.276v-1.195a8.528 8.528 0 0 1-.837.275v1.195zm2-2.109v1.195a1.801 1.801 0 0 0 .837-1.394v-1.199a1.802 1.802 0 0 1-.837 1.398zm.834-1.449.001.025-.001.026V17.578z"/><path fill="#fce68e" style="fill:var(--color14, #fce68e)" d="M5.605 20.045c-3.009 0-5.466-1.127-5.605-2.536v.119c0 1.467 2.508 2.659 5.605 2.659s5.605-1.192 5.605-2.659v-.119c-.139 1.409-2.596 2.536-5.605 2.536z"/><path fill="#f69221" style="fill:var(--color15, #f69221)" d="M5.027 16.278v-.206h.749v.206c.647.062.98.3.98.674v.087h-.862v-.112c0-.199-.168-.275-.457-.275s-.457.076-.457.275c0 .566 1.784.594 1.784 1.381 0 .362-.34.615-.987.677v.202h-.749v-.192c-.655-.061-.987-.304-.987-.677v-.188h.863v.217c0 .196.183.268.475.268s.471-.072.471-.268c0-.569-1.784-.594-1.784-1.384 0-.38.322-.615.962-.684z"/><path fill="#fcbc17" style="fill:var(--color16, #fcbc17)" d="M5.433 16.278v-.206h.749v.206c.647.062.98.3.98.674v.087h-.867v-.112c0-.199-.165-.275-.457-.275s-.453.076-.453.275c0 .566 1.784.594 1.784 1.381 0 .362-.34.615-.987.677v.202h-.75v-.192c-.654-.061-.987-.304-.987-.677v-.188h.862v.217c0 .196.183.268.476.268.292 0 .471-.072.471-.268 0-.569-1.784-.594-1.784-1.384 0-.38.321-.615.961-.684z"/><path fill="#f5bc18" style="fill:var(--color12, #f5bc18)" d="m11.206 15.734.001.025-.001.027v-.001c0 1.449-2.508 2.659-5.605 2.659C2.505 18.444 0 17.261 0 15.796v1.192c0 1.471 2.508 2.658 5.605 2.658s5.605-1.187 5.605-2.658v-1.254h-.003z"/><path fill="#eda121" style="fill:var(--color13, #eda121)" d="M.366 16.724v1.185c.23.288.505.529.816.717l.014.008v-1.196a3.076 3.076 0 0 1-.825-.708l-.004-.006zm1.996 2.426c.274.091.554.169.837.232v-1.195a8.936 8.936 0 0 1-.837-.232v1.195zm2.003.424c.274.029.552.047.837.058v-1.195a7.65 7.65 0 0 1-.837-.059v1.195zm2.004.04c.285-.018.563-.047.837-.084v-1.195c-.274.036-.552.065-.837.083v1.195zm2.003-.323c.284-.075.564-.167.837-.275v-1.195a7.506 7.506 0 0 1-.837.274v1.196zm2-2.108v1.195a1.801 1.801 0 0 0 .837-1.394v-1.199a1.802 1.802 0 0 1-.837 1.398zm.834-1.449.001.025-.001.027v-.052z"/><path fill="#fce68e" style="fill:var(--color14, #fce68e)" d="M5.605 18.201c-3.009 0-5.466-1.123-5.597-2.535v.12c0 1.449 2.508 2.659 5.604 2.659s5.605-1.192 5.605-2.658v-.12c-.146 1.413-2.603 2.536-5.612 2.536z"/><path fill="#f69221" style="fill:var(--color15, #f69221)" d="M5.027 14.434v-.202h.749v.202c.647.065.98.3.98.674v.087h-.862v-.116c0-.196-.168-.268-.457-.268s-.457.072-.457.268c0 .568 1.784.598 1.784 1.383 0 .362-.34.616-.987.678v.202h-.749v-.202c-.64-.062-.987-.319-.987-.681v-.189h.863v.217c0 .196.183.268.475.268s.471-.072.471-.268c0-.568-1.784-.594-1.784-1.384 0-.366.322-.601.962-.67z"/><path fill="#fcbc17" style="fill:var(--color16, #fcbc17)" d="M5.433 14.434v-.202h.749v.202c.647.065.98.3.98.674v.087h-.867v-.116c0-.196-.165-.268-.457-.268s-.453.072-.453.268c0 .568 1.784.598 1.784 1.383 0 .362-.34.616-.987.678v.202h-.75v-.202c-.654-.062-.987-.304-.987-.678v-.188h.862v.217c0 .196.183.268.476.268.292 0 .471-.072.471-.268 0-.569-1.784-.594-1.784-1.384 0-.37.321-.605.961-.674z"/><path fill="#f5bc18" style="fill:var(--color12, #f5bc18)" d="m11.206 14.119.001.025-.001.026v-.001c0 1.449-2.508 2.659-5.605 2.659C2.505 16.828 0 15.639 0 14.177v1.195c0 1.449 2.508 2.651 5.605 2.651s5.605-1.202 5.605-2.651v-1.254h-.003z"/><path fill="#eda121" style="fill:var(--color13, #eda121)" d="M.366 15.108v1.195c.234.281.516.519.833.703v-1.195a3.198 3.198 0 0 1-.829-.698l-.004-.005zm1.996 2.438c.274.094.554.172.837.235v-1.195a9.27 9.27 0 0 1-.837-.235v1.195zm2.003.409c.274.029.552.05.837.057V16.82c-.285 0-.563-.029-.837-.061v1.195zm2.004.043c.285 0 .563-.047.837-.087v-1.195a9.087 9.087 0 0 1-.837.083v1.199zm2.003-.322a8.81 8.81 0 0 0 .837-.276v-1.195c-.274.108-.553.2-.837.275v1.195zm2-2.112v1.195c.472-.3.791-.802.837-1.381v-1.209c-.02.281-.106.554-.252.795s-.346.447-.585.6zm.834-1.445.001.025-.001.026V14.119z"/><path fill="#fce68e" style="fill:var(--color14, #fce68e)" d="M5.605 16.586c-3.009 0-5.466-1.127-5.605-2.539v.123c0 1.467 2.508 2.651 5.605 2.651s5.605-1.191 5.605-2.658v-.124c-.139 1.42-2.596 2.547-5.605 2.547z"/><path fill="#f69221" style="fill:var(--color15, #f69221)" d="M5.027 12.837v-.206h.749v.206c.647.062.98.3.98.674v.087h-.862v-.116c0-.196-.168-.272-.457-.272s-.457.076-.457.272c0 .568 1.784.594 1.784 1.383 0 .362-.34.613-.987.678v.191h-.749v-.199c-.655-.065-.987-.304-.987-.677v-.21h.863v.214c0 .199.183.268.475.268s.471-.058.471-.257c0-.565-1.784-.594-1.784-1.38 0-.37.322-.609.962-.656z"/><path fill="#fcbc17" style="fill:var(--color16, #fcbc17)" d="M5.433 12.837v-.206h.749v.206c.647.062.98.3.98.674v.087h-.867v-.116c0-.196-.165-.272-.457-.272s-.453.076-.453.272c0 .568 1.784.594 1.784 1.383 0 .362-.34.613-.987.678v.191h-.75v-.199c-.654-.065-.987-.304-.987-.677v-.21h.862v.214c0 .199.183.268.476.268.292 0 .471-.069.471-.268 0-.566-1.784-.594-1.784-1.38 0-.359.321-.598.961-.645z"/><path fill="#f5bc18" style="fill:var(--color12, #f5bc18)" d="m11.206 12.475.001.025-.001.026v-.001c0 1.467-2.508 2.659-5.605 2.659C2.505 15.184 0 14.003 0 12.54v1.192c0 1.449 2.508 2.659 5.605 2.659s5.605-1.191 5.605-2.658v-1.257h-.003z"/><path fill="#eda121" style="fill:var(--color13, #eda121)" d="M.366 13.467v1.181c.231.288.512.534.829.724v-1.195a3.153 3.153 0 0 1-.825-.706l-.004-.005zm1.996 2.423c.274.094.554.172.837.235V14.93a7.551 7.551 0 0 1-.892-.252l.055.017v1.195zm2.003.424c.274.033.552.051.837.061V15.18c-.285 0-.563-.029-.837-.058v1.192zm2.004.043c.285 0 .563-.047.837-.087v-1.195c-.274.04-.552.069-.837.087v1.195zm2.003-.322a7.45 7.45 0 0 0 .837-.276v-1.195a7.73 7.73 0 0 1-.837.276v1.195zm2-2.112v1.195a1.81 1.81 0 0 0 .837-1.394v-1.195a1.841 1.841 0 0 1-.83 1.39l-.007.004zm.834-1.448.001.025-.001.026V12.475z"/><path fill="#fce68e" style="fill:var(--color14, #fce68e)" d="M5.605 14.945c-3.009 0-5.466-1.127-5.605-2.539v.123c0 1.467 2.508 2.659 5.605 2.659s5.605-1.192 5.605-2.659v-.123c-.139 1.413-2.596 2.539-5.605 2.539z"/><path fill="#f69221" style="fill:var(--color15, #f69221)" d="M5.027 11.178v-.202h.749v.202c.647.065.98.3.98.674v.087h-.862v-.116c0-.196-.168-.272-.457-.272s-.457.076-.457.272c0 .569 1.784.598 1.784 1.384 0 .362-.34.616-.987.677v.202h-.749v-.202c-.655-.061-.987-.304-.987-.677v-.188h.863v.217c0 .196.183.268.475.268s.471-.072.471-.268c0-.568-1.784-.598-1.784-1.383 0-.37.322-.609.962-.674z"/><path fill="#fcbc17" style="fill:var(--color16, #fcbc17)" d="M5.433 11.178v-.202h.749v.202c.647.065.98.3.98.674v.087h-.867v-.116c0-.196-.165-.272-.457-.272s-.453.076-.453.272c0 .569 1.784.598 1.784 1.384 0 .362-.34.616-.987.677v.202h-.75v-.202c-.654-.061-.987-.304-.987-.677v-.188h.862v.217c0 .196.183.268.476.268.292 0 .471-.072.471-.268 0-.568-1.784-.598-1.784-1.383 0-.37.321-.609.961-.674z"/><path fill="#f5bc18" style="fill:var(--color12, #f5bc18)" d="m11.206 10.862.001.024-.001.025v-.001c0 1.47-2.508 2.658-5.605 2.658C2.505 13.569 0 12.385 0 10.921v1.191c0 1.449 2.508 2.659 5.605 2.659s5.605-1.209 5.605-2.659v-1.25h-.003z"/><path fill="#eda121" style="fill:var(--color13, #eda121)" d="M.366 11.852v1.195c.235.28.517.518.833.703v-1.199a3.13 3.13 0 0 1-.829-.694l-.004-.005zm1.996 2.434c.274.093.554.17.837.232v-1.203a8.657 8.657 0 0 1-.837-.235v1.206zm2.003.412c.274.029.552.051.837.058v-1.195a7.65 7.65 0 0 1-.837-.059v1.196zm2.004.04c.285 0 .563-.047.837-.083V13.46c-.274.039-.552.065-.837.086v1.192zm2.003-.318a8.27 8.27 0 0 0 .837-.275V12.95a8.263 8.263 0 0 1-.837.274v1.196zm2-2.112v1.195a1.8 1.8 0 0 0 .837-1.385V10.91a1.806 1.806 0 0 1-.837 1.398zm.834-1.446.001.024-.002.025v-.049z"/><path fill="#fce68e" style="fill:var(--color14, #fce68e)" d="M5.605 13.329c-3.009 0-5.466-1.126-5.605-2.538v.12c0 1.47 2.508 2.651 5.605 2.651s5.605-1.189 5.605-2.659v-.12c-.139 1.42-2.596 2.547-5.605 2.547z"/><path fill="#f69221" style="fill:var(--color15, #f69221)" d="M5.027 9.576V9.37h.749v.206c.647.062.98.297.98.674v.084h-.862v-.112c0-.196-.168-.272-.457-.272s-.457.076-.457.272c0 .568 1.784.594 1.784 1.383 0 .362-.34.613-.987.678v.192h-.749v-.199c-.655-.065-.987-.304-.987-.678v-.21h.863v.217c0 .2.183.268.475.268s.471-.057.471-.257c0-.565-1.784-.594-1.784-1.38 0-.374.322-.609.962-.66z"/><path fill="#fcbc17" style="fill:var(--color16, #fcbc17)" d="M5.433 9.576V9.37h.749v.206c.647.062.98.297.98.674v.084h-.867v-.112c0-.196-.165-.272-.457-.272s-.453.076-.453.272c0 .568 1.784.594 1.784 1.383 0 .362-.34.613-.987.678v.192h-.75v-.199c-.654-.065-.987-.304-.987-.678v-.21h.862v.217c0 .2.183.268.476.268.292 0 .471-.068.471-.268 0-.565-1.784-.594-1.784-1.38 0-.362.321-.598.961-.649z"/><path fill="#f5bc18" style="fill:var(--color12, #f5bc18)" d="m11.206 9.215.001.025-.001.026v-.001c0 1.449-2.508 2.659-5.605 2.659C2.505 11.924 0 10.725 0 9.258v1.188c0 1.471 2.508 2.659 5.605 2.659s5.605-1.189 5.605-2.659V9.215h-.003z"/><path fill="#eda121" style="fill:var(--color13, #eda121)" d="M.366 10.189v1.199c.234.281.516.519.833.703v-1.195a3.141 3.141 0 0 1-.829-.702l-.004-.005zm1.996 2.423c.274.091.554.165.837.225v-1.195a7.551 7.551 0 0 1-.892-.252l.055.017v1.206zm2.003.424c.274.033.552.051.837.062v-1.195a7.65 7.65 0 0 1-.837-.059v1.192zm2.004.043c.285-.018.563-.047.837-.087v-1.195a10.72 10.72 0 0 1-.837.087v1.195zm2.003-.322c.284-.078.564-.172.837-.282V11.28a7.506 7.506 0 0 1-.837.274v1.203zm2-2.094v1.195a1.81 1.81 0 0 0 .837-1.394V9.251c-.019.3-.109.575-.253.814l.005-.008a1.835 1.835 0 0 1-.582.603l-.007.004z"/><path fill="#fce68e" style="fill:var(--color14, #fce68e)" d="M5.605 11.667c-3.009 0-5.466-1.123-5.597-2.536v.12c0 1.449 2.508 2.659 5.604 2.659s5.605-1.192 5.605-2.658v-.12c-.146 1.413-2.603 2.536-5.612 2.536z"/><path fill="#f69221" style="fill:var(--color15, #f69221)" d="M5.027 7.899v-.202h.749v.202c.647.065.98.3.98.674v.087h-.862v-.116c0-.196-.168-.268-.457-.268s-.457.072-.457.268c0 .568 1.784.598 1.784 1.383 0 .362-.34.616-.987.678v.202h-.749v-.202c-.64-.062-.987-.304-.987-.667V9.75h.863v.217c0 .196.183.268.475.268s.471-.072.471-.268c0-.568-1.784-.594-1.784-1.383 0-.381.322-.62.962-.685z"/><path fill="#fcbc17" style="fill:var(--color16, #fcbc17)" d="M5.433 7.899v-.202h.749v.202c.647.065.98.3.98.674v.087h-.867v-.116c0-.196-.165-.268-.457-.268s-.453.072-.453.268c0 .568 1.784.598 1.784 1.383 0 .362-.34.616-.987.678v.202h-.75v-.202c-.654-.062-.987-.304-.987-.678v-.188h.862v.217c0 .196.183.268.476.268.292 0 .471-.072.471-.268 0-.569-1.784-.594-1.784-1.384 0-.37.321-.609.961-.674z"/><path fill="#f5bc18" style="fill:var(--color12, #f5bc18)" d="m11.206 7.585.001.025a.211.211 0 0 1-.002.026v-.001c0 1.467-2.508 2.659-5.605 2.659-3.096 0-5.601-1.189-5.601-2.651v1.195c0 1.449 2.508 2.655 5.605 2.655s5.605-1.192 5.605-2.663V7.584h-.003z"/><path fill="#eda121" style="fill:var(--color13, #eda121)" d="M.366 8.573v1.195c.234.281.516.519.833.703V9.272a3.13 3.13 0 0 1-.829-.694l-.004-.005zm1.996 2.424c.274.091.554.17.837.235v-1.195a7.551 7.551 0 0 1-.892-.252l.055.017v1.195zm2.003.424c.274.029.552.05.837.061v-1.181c-.285 0-.563-.033-.837-.062v1.181zm2.004.04c.285-.018.563-.044.837-.084v-1.195a12.4 12.4 0 0 1-.837.087v1.192zm2.003-.32c.283-.076.563-.168.837-.275V9.671a8.485 8.485 0 0 1-.837.268v1.203zm2-2.111v1.195a1.81 1.81 0 0 0 .838-1.373V7.635c-.02.281-.106.554-.252.795s-.346.447-.585.6zm.834-1.445.001.025a.211.211 0 0 1-.002.026V7.585z"/><path fill="#fce68e" style="fill:var(--color14, #fce68e)" d="M5.605 10.051C2.596 10.051.139 8.924 0 7.512v.123c0 1.467 2.508 2.666 5.605 2.666s5.605-1.192 5.605-2.659v-.124c-.139 1.406-2.596 2.533-5.605 2.533z"/><path fill="#f69221" style="fill:var(--color15, #f69221)" d="M5.027 6.284v-.207h.749v.207c.647.061.98.296.98.673v.084h-.862v-.116c0-.196-.168-.272-.457-.272s-.457.076-.457.272c0 .569 1.784.594 1.784 1.385 0 .362-.34.611-.987.677v.199h-.749v-.199c-.655-.065-.987-.304-.987-.677v-.181h.863v.221c0 .196.183.264.475.264s.471-.076.471-.272c0-.568-1.784-.598-1.784-1.384 0-.37.322-.609.962-.673z"/><path fill="#fcbc17" style="fill:var(--color16, #fcbc17)" d="M5.433 6.284v-.207h.749v.207c.647.061.98.296.98.673v.084h-.867v-.116c0-.196-.165-.272-.457-.272s-.453.076-.453.272c0 .569 1.784.594 1.784 1.385 0 .362-.34.611-.987.677v.199h-.75v-.199c-.654-.065-.987-.304-.987-.677v-.181h.862v.221c0 .196.183.264.476.264.292 0 .471-.069.471-.264 0-.568-1.784-.598-1.784-1.384 0-.377.321-.616.961-.681z"/><path fill="#fff" style="fill:var(--color8, #fff)" opacity=".3" d="m5.605 4.976-.123-.001c-1.216 0-2.381.215-3.46.61l.07-.022L8.629 9.87c1.55-.475 2.581-1.297 2.581-2.235 0-1.471-2.508-2.658-5.605-2.658zM12.116.159l-.123-.001c-1.216 0-2.381.215-3.46.61l.07-.022 6.537 4.307c1.55-.475 2.581-1.297 2.581-2.235 0-1.47-2.508-2.658-5.605-2.658z"/><path fill="#f5bc18" style="fill:var(--color12, #f5bc18)" d="M22.474 26.894v.051c0 1.449-2.508 2.655-5.605 2.655-3.096 0-5.59-1.189-5.601-2.637v1.195c0 1.449 2.508 2.659 5.605 2.659s5.605-1.191 5.605-2.658v-1.265h-.003z"/><path fill="#eda121" style="fill:var(--color13, #eda121)" d="M11.626 27.884v1.195c.238.279.521.517.837.703v-1.195a3.313 3.313 0 0 1-.833-.698l-.004-.005zm2.003 2.423c.275.093.554.171.837.235v-1.195a8.657 8.657 0 0 1-.837-.235v1.195zm2.004.423c.27.029.552.051.837.058v-1.192c-.285 0-.567-.033-.837-.061v1.195zm2.004.044c.285-.022.563-.051.837-.087v-1.189c-.274.04-.552.069-.837.087v1.188zm1.999-.322a7.88 7.88 0 0 0 .837-.276v-1.195a7.719 7.719 0 0 1-.837.274v1.196zm2.004-2.112v1.195a1.805 1.805 0 0 0 .837-1.391v-1.181a1.82 1.82 0 0 1-.83 1.372l-.007.004z"/><path fill="#fce68e" style="fill:var(--color14, #fce68e)" d="M16.872 29.362c-3.009 0-5.466-1.127-5.597-2.536a.585.585 0 0 0 0 .126v-.003c0 1.448 2.508 2.655 5.604 2.655s5.597-1.192 5.597-2.64v-.123c-.139 1.395-2.596 2.521-5.605 2.521z"/><path fill="#f69221" style="fill:var(--color15, #f69221)" d="M16.295 25.594v-.206h.731v.206c.647.062.98.297.98.674v.083h-.848v-.112c0-.196-.164-.272-.453-.272s-.457.076-.457.272c0 .568 1.784.594 1.784 1.383 0 .362-.34.613-.987.678v.199h-.731V28.3c-.654-.065-.987-.304-.987-.678v-.192h.863v.217c0 .199.183.268.475.268s.471-.069.471-.268c0-.565-1.784-.594-1.784-1.38-.018-.373.304-.609.943-.674z"/><path fill="#fcbc17" style="fill:var(--color16, #fcbc17)" d="M16.701 25.594v-.206h.731v.206c.647.062.98.297.98.674v.083h-.863v-.112c0-.196-.165-.272-.457-.272s-.457.076-.457.272c0 .568 1.788.594 1.788 1.383 0 .362-.34.613-.987.678v.199h-.731V28.3c-.654-.065-.987-.304-.987-.678v-.192h.863v.217c0 .199.183.268.471.268s.475-.069.475-.268c0-.565-1.788-.594-1.788-1.38-.018-.373.322-.609.962-.674z"/><path fill="#f5bc18" style="fill:var(--color12, #f5bc18)" d="M22.473 25.275v.051c0 1.471-2.508 2.659-5.605 2.659s-5.593-1.185-5.605-2.648v1.191c0 1.471 2.508 2.659 5.605 2.659s5.605-1.189 5.605-2.659v-1.253z"/><path fill="#eda121" style="fill:var(--color13, #eda121)" d="M11.626 26.264v1.195c.235.281.519.519.837.703v-1.199a3.168 3.168 0 0 1-.833-.694l-.004-.005zm2.003 2.428c.275.091.555.169.837.232v-1.195a8.646 8.646 0 0 1-.837-.233v1.195zm2.004.423c.27.029.552.047.837.057v-1.195c-.285 0-.567-.029-.837-.058v1.195zm2.004.04c.285 0 .563-.048.837-.084v-1.195c-.274.036-.552.065-.837.083v1.195zm1.999-.319a6.82 6.82 0 0 0 .884-.296l-.047.017v-1.195a7.972 7.972 0 0 1-.837.279v1.195zm2.004-2.111v1.195a1.8 1.8 0 0 0 .837-1.394v-1.2a1.802 1.802 0 0 1-.837 1.398z"/><path fill="#fce68e" style="fill:var(--color14, #fce68e)" d="M16.872 27.742c-3.009 0-5.466-1.123-5.597-2.535a.592.592 0 0 0 0 .119c0 1.471 2.508 2.659 5.605 2.659s5.605-1.189 5.605-2.659v-.119c-.146 1.413-2.603 2.535-5.612 2.535z"/><path fill="#f69221" style="fill:var(--color15, #f69221)" d="M16.295 23.975v-.202h.731v.202c.647.065.98.3.98.674v.087h-.848v-.112c0-.199-.164-.272-.453-.272s-.457.072-.457.272c0 .565 1.784.594 1.784 1.38 0 .362-.34.616-.987.677v.202h-.731v-.202c-.654-.061-.987-.3-.987-.677v-.188h.863v.217c0 .196.183.268.475.268s.471-.072.471-.268c0-.568-1.784-.594-1.784-1.383-.018-.37.304-.605.943-.674z"/><path fill="#fcbc17" style="fill:var(--color16, #fcbc17)" d="M16.701 23.975v-.202h.731v.202c.647.065.98.3.98.674v.087h-.863v-.112c0-.199-.165-.272-.457-.272s-.457.072-.457.272c0 .565 1.788.594 1.788 1.38 0 .362-.34.616-.987.677v.202h-.731v-.202c-.654-.061-.987-.3-.987-.677v-.188h.863v.217c0 .196.183.268.471.268s.475-.072.475-.268c0-.568-1.788-.594-1.788-1.383-.018-.37.322-.605.962-.674z"/><path fill="#f5bc18" style="fill:var(--color12, #f5bc18)" d="M22.474 23.638v.051c0 1.467-2.508 2.655-5.605 2.655-3.096 0-5.59-1.191-5.601-2.64v1.192c0 1.471 2.508 2.659 5.605 2.659s5.605-1.189 5.605-2.659v-1.257h-.003z"/><path fill="#eda121" style="fill:var(--color13, #eda121)" d="M11.626 24.624v1.195c.235.279.511.513.822.695l.015.008V25.33a3.228 3.228 0 0 1-.833-.701l-.004-.005zm2.003 2.426c.275.091.555.169.837.232v-1.195a8.641 8.641 0 0 1-.837-.232v1.195zm2.004.424c.27.029.552.047.837.058v-1.195a7.58 7.58 0 0 1-.837-.059v1.195zm2.004.04c.285 0 .563-.047.837-.084v-1.191c-.274.036-.552.065-.837.083v1.192zm1.999-.319c.335-.089.614-.185.884-.296l-.047.017v-1.195a6.514 6.514 0 0 1-.788.267l-.05.011v1.195zm2.004-2.111v1.195a1.801 1.801 0 0 0 .837-1.391v-1.185a1.79 1.79 0 0 1-.26.795l.004-.008c-.148.241-.344.44-.575.588l-.007.004z"/><path fill="#fce68e" style="fill:var(--color14, #fce68e)" d="M16.872 26.102c-3.009 0-5.466-1.123-5.597-2.536a.585.585 0 0 0 0 .126v-.003c0 1.467 2.508 2.655 5.604 2.655s5.597-1.191 5.597-2.64v-.123c-.139 1.398-2.596 2.521-5.605 2.521z"/><path fill="#f69221" style="fill:var(--color15, #f69221)" d="M16.295 22.338v-.206h.731v.206c.647.061.98.297.98.674v.083h-.848v-.116c0-.199-.164-.272-.453-.272s-.457.072-.457.272c0 .565 1.784.594 1.784 1.38 0 .362-.34.616-.987.681v.199h-.731v-.196c-.654-.065-.987-.304-.987-.681v-.188h.863v.217c0 .196.183.268.475.268s.471-.072.471-.268c0-.565-1.784-.594-1.784-1.38-.018-.374.304-.609.943-.674z"/><path fill="#fcbc17" style="fill:var(--color16, #fcbc17)" d="M16.701 22.338v-.206h.731v.206c.647.061.98.297.98.674v.083h-.863v-.116c0-.199-.165-.272-.457-.272s-.457.072-.457.272c0 .565 1.788.594 1.788 1.38 0 .362-.34.616-.987.681v.199h-.731v-.196c-.654-.065-.987-.304-.987-.681v-.188h.863v.217c0 .196.183.268.471.268s.475-.072.475-.268c0-.565-1.788-.594-1.788-1.38-.018-.374.322-.609.962-.674z"/><path fill="#f5bc18" style="fill:var(--color12, #f5bc18)" d="M22.473 22.019v.051c0 1.467-2.508 2.658-5.605 2.658s-5.593-1.184-5.605-2.648v1.192c0 1.467 2.508 2.659 5.605 2.659s5.605-1.192 5.605-2.659v-1.254z"/><path fill="#eda121" style="fill:var(--color13, #eda121)" d="M11.626 23.008v1.195c.235.281.519.519.837.703v-1.202a3.179 3.179 0 0 1-.834-.691l-.004-.004zm2.003 2.427c.275.091.555.169.837.232v-1.195a7.551 7.551 0 0 1-.892-.252l.055.017v1.198zm2.004.442c.27.029.552.047.837.058V24.74a7.58 7.58 0 0 1-.837-.059v1.195zm2.004.021c.285 0 .563-.047.837-.087v-1.195a10.72 10.72 0 0 1-.837.087v1.195zm1.999-.322a7 7 0 0 0 .837-.275v-1.195a7 7 0 0 1-.837.275v1.195zm2.004-2.111v1.199a1.84 1.84 0 0 0 .838-1.395V22.07a1.804 1.804 0 0 1-.837 1.394z"/><path fill="#fce68e" style="fill:var(--color14, #fce68e)" d="M16.872 24.486c-3.009 0-5.466-1.127-5.597-2.536a.601.601 0 0 0 0 .12c0 1.467 2.508 2.658 5.605 2.658s5.605-1.191 5.605-2.658v-.12c-.146 1.409-2.603 2.536-5.612 2.536z"/><path fill="#f69221" style="fill:var(--color15, #f69221)" d="M16.295 20.719v-.203h.731v.202c.647.062.98.301.98.674v.087h-.848v-.116c0-.196-.164-.272-.453-.272s-.457.076-.457.272c0 .568 1.784.598 1.784 1.384 0 .362-.34.616-.987.677v.202h-.731v-.202c-.654-.061-.987-.304-.987-.677v-.189h.863v.217c0 .196.183.268.475.268s.471-.072.471-.268c0-.568-1.784-.598-1.784-1.384-.018-.37.304-.586.943-.673z"/><path fill="#fcbc17" style="fill:var(--color16, #fcbc17)" d="M16.701 20.719v-.203h.731v.202c.647.062.98.301.98.674v.087h-.863v-.116c0-.196-.165-.272-.457-.272s-.457.076-.457.272c0 .568 1.788.598 1.788 1.384 0 .362-.34.616-.987.677v.202h-.731v-.202c-.654-.061-.987-.304-.987-.677v-.189h.863v.217c0 .196.183.268.471.268s.475-.072.475-.268c0-.568-1.788-.598-1.788-1.384-.018-.37.322-.586.962-.673z"/><path fill="#f5bc18" style="fill:var(--color12, #f5bc18)" d="M22.474 20.36v.05c0 1.467-2.508 2.655-5.605 2.655-3.096 0-5.59-1.174-5.601-2.648v1.196c0 1.448 2.508 2.655 5.605 2.655s5.605-1.188 5.605-2.655v-1.254h-.003z"/><path fill="#eda121" style="fill:var(--color13, #eda121)" d="M11.626 21.349v1.196c.236.279.52.516.837.699v-1.191a3.313 3.313 0 0 1-.833-.698l-.004-.005zm2.003 2.423c.263.087.545.167.837.235v-1.195a8.657 8.657 0 0 1-.837-.235v1.195zm2.004.424c.27.029.552.051.837.059v-1.196a7.58 7.58 0 0 1-.837-.059v1.196zm2.004.04c.285 0 .563-.047.837-.083v-1.195a14.71 14.71 0 0 1-.837.086v1.192zm1.999-.319c.284-.076.564-.168.837-.275v-1.195a8.797 8.797 0 0 1-.837.274v1.196zm2.004-2.111v1.195a1.805 1.805 0 0 0 .837-1.391v-1.199a1.808 1.808 0 0 1-.837 1.394z"/><path fill="#fce68e" style="fill:var(--color14, #fce68e)" d="M16.872 22.827c-3.009 0-5.466-1.127-5.597-2.536a.585.585 0 0 0 0 .126v-.003c0 1.467 2.508 2.655 5.604 2.655s5.597-1.177 5.597-2.658v-.124c-.139 1.413-2.596 2.54-5.605 2.54z"/><path fill="#f69221" style="fill:var(--color15, #f69221)" d="M16.295 19.06v-.206h.731v.206c.647.062.98.297.98.674v.084h-.848v-.098c0-.196-.164-.272-.453-.272s-.457.076-.457.272c0 .565 1.784.594 1.784 1.383 0 .362-.34.613-.987.678v.199h-.731v-.199c-.654-.065-.987-.304-.987-.678v-.191h.863v.217c0 .199.183.268.475.268s.471-.069.471-.268c0-.565-1.784-.594-1.784-1.38-.018-.391.304-.623.943-.688z"/><path fill="#fcbc17" style="fill:var(--color16, #fcbc17)" d="M16.701 19.06v-.206h.731v.206c.647.062.98.297.98.674v.084h-.863v-.098c0-.196-.165-.272-.457-.272s-.457.076-.457.272c0 .565 1.788.594 1.788 1.383 0 .362-.34.613-.987.678v.199h-.731v-.199c-.654-.065-.987-.304-.987-.678v-.191h.863v.217c0 .199.183.268.471.268s.475-.069.475-.268c-.004-.579-1.806-.608-1.806-1.409 0-.362.34-.594.98-.66z"/><path fill="#f5bc18" style="fill:var(--color12, #f5bc18)" d="M22.473 18.741v.051c0 1.471-2.508 2.659-5.605 2.659s-5.593-1.185-5.605-2.648v1.191c0 1.471 2.508 2.659 5.605 2.659s5.605-1.189 5.605-2.659v-1.253z"/><path fill="#eda121" style="fill:var(--color13, #eda121)" d="M11.626 19.719v1.195c.235.281.519.519.837.703v-1.174a3.15 3.15 0 0 1-.833-.719l-.005-.006zm2.003 2.438c.275.091.555.169.837.232v-1.195a8.646 8.646 0 0 1-.837-.233v1.195zm2.004.424c.27.029.552.047.837.057v-1.195c-.285 0-.567-.029-.837-.058v1.195zm2.004.036c.285 0 .563-.047.837-.084v-1.195c-.274.04-.552.069-.837.087v1.192zm1.999-.319c.285-.074.564-.167.837-.276v-1.195a7 7 0 0 1-.837.275v1.195zm2.004-2.108v1.195a1.84 1.84 0 0 0 .838-1.394v-1.199a1.802 1.802 0 0 1-.837 1.398z"/><path fill="#fce68e" style="fill:var(--color14, #fce68e)" d="M16.872 21.207c-3.009 0-5.466-1.123-5.597-2.535a.592.592 0 0 0 0 .119c0 1.471 2.508 2.659 5.605 2.659s5.605-1.189 5.605-2.659v-.119c-.146 1.409-2.603 2.535-5.612 2.535z"/><path fill="#f69221" style="fill:var(--color15, #f69221)" d="M16.295 17.441v-.202h.731v.202c.647.065.98.3.98.674v.087h-.848v-.112c0-.199-.164-.276-.453-.276s-.457.076-.457.276c0 .565 1.784.594 1.784 1.38 0 .362-.34.616-.987.677v.202h-.731v-.202c-.654-.061-.987-.304-.987-.677v-.188h.863v.217c0 .196.183.268.475.268s.471-.072.471-.268c0-.568-1.784-.594-1.784-1.383-.018-.37.304-.605.943-.674z"/><path fill="#fcbc17" style="fill:var(--color16, #fcbc17)" d="M16.701 17.441v-.202h.731v.202c.647.065.98.3.98.674v.087h-.864v-.112c0-.199-.165-.276-.457-.276s-.457.076-.457.276c0 .565 1.788.594 1.788 1.38 0 .362-.34.616-.987.677v.202h-.731v-.202c-.658-.065-.983-.304-.983-.677v-.188h.863v.217c0 .196.183.268.472.268s.475-.072.475-.268c0-.568-1.787-.594-1.787-1.383-.022-.37.318-.605.958-.674z"/><path fill="#f5bc18" style="fill:var(--color12, #f5bc18)" d="M22.473 16.897v.051c0 1.47-2.508 2.658-5.605 2.658s-5.593-1.184-5.605-2.648v1.192c0 1.471 2.508 2.659 5.605 2.659s5.605-1.188 5.605-2.658v-1.254z"/><path fill="#eda121" style="fill:var(--color13, #eda121)" d="M11.626 17.886v1.195c.235.279.511.513.822.695l.015.008v-1.195a3.131 3.131 0 0 1-.833-.699l-.004-.005zm2.003 2.427c.275.091.555.169.837.232v-1.188a8.365 8.365 0 0 1-.837-.232v1.189zm2.004.424c.27.029.552.047.837.059V19.6c-.285 0-.567-.029-.837-.058v1.195zm2.004.039c.285-.018.563-.047.837-.083v-1.195c-.274.036-.552.065-.837.083v1.195zm1.999-.333c.284-.072.564-.161.837-.265v-1.185a7.747 7.747 0 0 1-.837.279v1.17zm2.004-2.097v1.195a1.805 1.805 0 0 0 .837-1.391v-1.202a1.806 1.806 0 0 1-.837 1.398z"/><path fill="#fce68e" style="fill:var(--color14, #fce68e)" d="M16.872 19.357c-3.009 0-5.466-1.123-5.597-2.536a.592.592 0 0 0 0 .119c0 1.471 2.508 2.659 5.605 2.659s5.605-1.189 5.605-2.659v-.119c-.146 1.42-2.603 2.536-5.612 2.536z"/><path fill="#f69221" style="fill:var(--color15, #f69221)" d="M16.295 15.597v-.202h.731v.202c.647.065.98.3.98.673v.087h-.848v-.112c0-.2-.164-.272-.453-.272s-.457.072-.457.272c0 .565 1.784.594 1.784 1.38 0 .362-.34.616-.987.677v.202h-.731v-.202c-.654-.061-.987-.3-.987-.677v-.189h.863v.217c0 .196.183.268.475.268s.471-.072.471-.268c0-.568-1.784-.594-1.784-1.384-.018-.369.304-.605.943-.673z"/><path fill="#fcbc17" style="fill:var(--color16, #fcbc17)" d="M16.701 15.597v-.202h.731v.202c.647.065.98.3.98.673v.087h-.863v-.112c0-.2-.165-.272-.457-.272s-.457.072-.457.272c0 .565 1.788.594 1.788 1.38 0 .362-.34.616-.987.677v.202h-.731v-.202c-.654-.061-.987-.3-.987-.677v-.189h.863v.217c0 .196.183.268.471.268s.475-.072.475-.268c0-.568-1.788-.594-1.788-1.384-.018-.369.322-.605.962-.673z"/><path fill="#f5bc18" style="fill:var(--color12, #f5bc18)" d="M22.474 15.282v.051c0 1.449-2.508 2.659-5.605 2.659-3.096 0-5.59-1.17-5.601-2.651v1.192c0 1.467 2.508 2.659 5.605 2.659s5.605-1.192 5.605-2.659v-1.25h-.003z"/><path fill="#eda121" style="fill:var(--color13, #eda121)" d="M11.626 16.27v1.195c.236.281.52.519.837.703v-1.195a3.316 3.316 0 0 1-.833-.699l-.004-.005zm2.003 2.424c.275.092.554.171.837.235v-1.195a7.551 7.551 0 0 1-.892-.252l.055.017v1.195zm2.004.428c.27.029.552.047.837.057v-1.195c-.285 0-.567-.029-.837-.061v1.199zm2.004.039c.285-.018.563-.047.837-.087v-1.195c-.274.04-.552.069-.837.087v1.195zm1.999-.322c.284-.076.564-.168.837-.276v-1.195a7.19 7.19 0 0 1-.837.276v1.195zm2.004-2.112v1.181a1.801 1.801 0 0 0 .837-1.391v-1.185a1.808 1.808 0 0 1-.837 1.394z"/><path fill="#fce68e" style="fill:var(--color14, #fce68e)" d="M16.872 17.748c-3.009 0-5.466-1.127-5.597-2.535a.58.58 0 0 0 0 .125v-.003c0 1.449 2.508 2.659 5.605 2.659s5.605-1.192 5.605-2.659v-.123c-.146 1.409-2.603 2.535-5.612 2.535z"/><path fill="#f69221" style="fill:var(--color15, #f69221)" d="M16.295 13.981v-.206h.731v.206c.647.061.98.3.98.674v.087h-.848v-.116c0-.196-.164-.272-.453-.272s-.457.076-.457.272c0 .569 1.784.594 1.784 1.384 0 .362-.34.611-.987.677v.202h-.731v-.202c-.654-.065-.987-.304-.987-.677v-.188h.863v.217c0 .196.183.265.475.265s.471-.069.471-.265c0-.568-1.784-.598-1.784-1.383-.018-.37.304-.609.943-.674z"/><path fill="#fcbc17" style="fill:var(--color16, #fcbc17)" d="M16.701 13.981v-.206h.731v.206c.647.061.98.3.98.674v.087h-.863v-.116c0-.196-.165-.272-.457-.272s-.457.076-.457.272c0 .569 1.788.594 1.788 1.384 0 .362-.34.611-.987.677v.202h-.731v-.202c-.654-.065-.987-.304-.987-.677v-.188h.863v.217c0 .196.183.265.471.265s.475-.069.475-.265c-.004-.568-1.806-.598-1.806-1.391 0-.362.34-.601.98-.666z"/><path fill="#f5bc18" style="fill:var(--color12, #f5bc18)" d="M22.473 13.641v.05c0 1.449-2.508 2.659-5.605 2.659s-5.593-1.184-5.605-2.648v1.192c0 1.471 2.508 2.658 5.605 2.658s5.605-1.187 5.605-2.658V13.64z"/><path fill="#eda121" style="fill:var(--color13, #eda121)" d="M11.626 14.648v1.195c.236.28.52.518.837.703v-1.195a3.147 3.147 0 0 1-.833-.698l-.004-.005zm2.003 2.409c.275.091.555.169.837.232v-1.192a8.365 8.365 0 0 1-.837-.232v1.192zm2.004.423c.27.029.552.047.837.058v-1.195a7.58 7.58 0 0 1-.837-.059v1.196zm2.004.04c.285 0 .563-.047.837-.087v-1.192c-.274.036-.552.065-.837.084v1.195zm1.999-.337a6.99 6.99 0 0 0 .837-.261v-1.188c-.273.11-.552.201-.837.276v1.174zm2.004-2.093v1.195c.238-.153.438-.359.583-.6s.233-.513.255-.794v-1.199a1.802 1.802 0 0 1-.837 1.398z"/><path fill="#fce68e" style="fill:var(--color14, #fce68e)" d="M16.872 16.097c-3.009 0-5.466-1.127-5.597-2.535a.601.601 0 0 0 0 .12c0 1.448 2.508 2.658 5.605 2.658s5.605-1.191 5.605-2.658v-.12c-.146 1.42-2.603 2.535-5.612 2.535z"/><path fill="#f69221" style="fill:var(--color15, #f69221)" d="M16.295 12.34v-.202h.731v.202c.647.065.98.3.98.674v.087h-.848v-.116c0-.196-.164-.268-.453-.268s-.457.072-.457.268c0 .568 1.784.598 1.784 1.384 0 .362-.34.615-.987.677v.202h-.731v-.202c-.654-.062-.987-.304-.987-.677v-.189h.863v.217c0 .196.183.268.475.268s.471-.072.471-.268c0-.569-1.784-.594-1.784-1.384-.018-.37.304-.609.943-.674z"/><path fill="#fcbc17" style="fill:var(--color16, #fcbc17)" d="M16.701 12.34v-.202h.731v.202c.647.065.98.3.98.674v.087h-.863v-.116c0-.196-.165-.268-.457-.268s-.457.072-.457.268c0 .568 1.788.598 1.788 1.384 0 .362-.34.615-.987.677v.202h-.731v-.202c-.654-.062-.987-.304-.987-.677v-.189h.863v.217c0 .196.183.268.471.268s.475-.072.475-.268c0-.569-1.788-.594-1.788-1.384-.018-.37.322-.609.962-.674z"/><path fill="#f5bc18" style="fill:var(--color12, #f5bc18)" d="M22.474 12.025v.05c0 1.467-2.508 2.655-5.605 2.655-3.096 0-5.59-1.17-5.601-2.648v1.195c0 1.449 2.508 2.659 5.605 2.659s5.605-1.192 5.605-2.659v-1.254h-.003z"/><path fill="#eda121" style="fill:var(--color13, #eda121)" d="M11.626 13.014v1.195c.238.28.521.517.837.703v-1.195a3.313 3.313 0 0 1-.833-.698l-.004-.005zm2.003 2.424c.275.092.554.17.837.235v-1.195a9.27 9.27 0 0 1-.837-.235v1.195zm2.004.424c.27.029.552.05.837.057v-1.195c-.285 0-.567-.029-.837-.058v1.195zm2.004.043a12.4 12.4 0 0 0 .837-.087v-1.195c-.274.039-.552.065-.837.087v1.195zm1.999-.323c.284-.076.564-.167.837-.275v-1.195a7.95 7.95 0 0 1-.837.275v1.195zm2.004-2.111v1.195a1.814 1.814 0 0 0 .837-1.391v-1.199a1.804 1.804 0 0 1-.837 1.395z"/><path fill="#ffd528" style="fill:var(--color17, #ffd528)" d="M22.477 12.076c0 1.467-2.508 2.655-5.605 2.655s-5.605-1.17-5.605-2.655c0-1.485 2.508-2.658 5.605-2.658s5.605 1.188 5.605 2.658z"/><path fill="#fce68e" style="fill:var(--color14, #fce68e)" d="M16.872 14.492c-3.009 0-5.466-1.127-5.597-2.536a.585.585 0 0 0 0 .126v-.003c0 1.467 2.508 2.655 5.604 2.655s5.597-1.174 5.597-2.659v-.123c-.139 1.413-2.596 2.539-5.605 2.539z"/><path fill="#f69221" style="fill:var(--color15, #f69221)" d="M16.295 10.725v-.206h.731v.206c.647.061.98.296.98.673v.087h-.848v-.098c0-.195-.164-.271-.453-.271s-.457.076-.457.272c0 .568 1.784.594 1.784 1.383 0 .362-.34.613-.987.678v.199h-.731v-.199c-.654-.065-.987-.304-.987-.678v-.188h.863v.214c0 .199.183.268.475.268s.471-.069.471-.268c0-.565-1.784-.594-1.784-1.38-.018-.391.304-.627.943-.692z"/><path fill="#fcbc17" style="fill:var(--color16, #fcbc17)" d="M16.701 10.725v-.206h.731v.206c.647.061.98.296.98.673v.087h-.863v-.098c0-.195-.165-.271-.457-.271s-.457.076-.457.272c0 .568 1.788.594 1.788 1.383 0 .362-.34.613-.987.678v.199h-.731v-.199c-.654-.065-.987-.304-.987-.678v-.188h.863v.214c0 .199.183.268.471.268s.475-.069.475-.268c-.004-.583-1.806-.612-1.806-1.409 0-.362.34-.598.98-.663z"/><path fill="#f5bc18" style="fill:var(--color12, #f5bc18)" d="M22.473 10.363v.051c0 1.467-2.508 2.658-5.605 2.658s-5.593-1.184-5.605-2.648v1.192c0 1.471 2.508 2.659 5.605 2.659s5.605-1.188 5.605-2.658v-1.254z"/><path fill="#eda121" style="fill:var(--color13, #eda121)" d="M11.626 11.351v1.195c.235.281.519.519.837.703v-1.195a3.131 3.131 0 0 1-.833-.699l-.004-.005zm2.003 2.424c.274.094.554.172.837.235v-1.195a8.641 8.641 0 0 1-.837-.232v1.192zm2.004.424c.27.033.552.05.837.061v-1.195c-.285 0-.567-.029-.837-.058v1.192zm2.004.043c.285-.018.563-.047.837-.087v-1.192c-.274.037-.552.065-.837.084v1.195zm1.999-.319c.285-.075.564-.168.837-.279v-1.195a7 7 0 0 1-.837.275v1.199zm2.004-2.111v1.195a1.84 1.84 0 0 0 .838-1.394v-1.199a1.806 1.806 0 0 1-.837 1.398z"/><path fill="#ffd528" style="fill:var(--color17, #ffd528)" d="M22.477 10.414c0 1.467-2.508 2.658-5.605 2.658s-5.605-1.191-5.605-2.658c0-1.467 2.508-2.648 5.605-2.648s5.605 1.181 5.605 2.648z"/><path fill="#fce68e" style="fill:var(--color14, #fce68e)" d="M16.872 12.837c-3.009 0-5.466-1.123-5.597-2.535a.601.601 0 0 0 0 .12c0 1.467 2.508 2.658 5.605 2.658s5.605-1.191 5.605-2.658v-.12c-.146 1.405-2.603 2.535-5.612 2.535z"/><path fill="#f69221" style="fill:var(--color15, #f69221)" d="M16.295 9.063v-.21h.731v.202c.647.065.98.301.98.674v.087h-.848V9.7c0-.196-.164-.268-.453-.268s-.457.072-.457.268c0 .568 1.784.598 1.784 1.384 0 .362-.34.616-.987.677v.202h-.731v-.202c-.654-.061-.987-.304-.987-.677v-.189h.863v.217c0 .196.183.268.475.268s.471-.072.471-.268c0-.568-1.784-.594-1.784-1.384-.018-.362.304-.598.943-.666z"/><path fill="#fcbc17" style="fill:var(--color16, #fcbc17)" d="M16.701 9.063v-.21h.731v.202c.647.065.98.301.98.674v.087h-.863V9.7c0-.196-.165-.268-.457-.268s-.457.072-.457.268c0 .568 1.788.598 1.788 1.384 0 .362-.34.616-.987.677v.202h-.731v-.202c-.654-.061-.987-.304-.987-.677v-.189h.863v.217c0 .196.183.268.471.268s.475-.072.475-.268c0-.568-1.788-.594-1.788-1.384-.018-.362.322-.598.962-.666z"/><path fill="#f5bc18" style="fill:var(--color12, #f5bc18)" d="M22.473 8.747v.051c0 1.449-2.508 2.659-5.605 2.659s-5.593-1.189-5.605-2.651v1.195c0 1.467 2.508 2.659 5.605 2.659s5.605-1.191 5.605-2.658V8.748z"/><path fill="#eda121" style="fill:var(--color13, #eda121)" d="M11.626 9.736v1.195c.236.281.52.519.837.703v-1.195a3.316 3.316 0 0 1-.833-.699l-.004-.005zm2.003 2.424c.275.091.554.17.837.235V11.2a7.69 7.69 0 0 1-.892-.252l.055.017v1.195zm2.004.423c.27.029.552.051.837.061v-1.195c-.285 0-.567-.033-.837-.061v1.195zm2.004.044c.285-.022.563-.048.837-.088v-1.195c-.274.04-.552.069-.837.087v1.195zm1.999-.323c.284-.075.564-.167.837-.274v-1.196a7.19 7.19 0 0 1-.837.276v1.195zm2.004-2.112v1.195a1.8 1.8 0 0 0 .837-1.385V8.798a1.808 1.808 0 0 1-.837 1.394z"/><path fill="#ffd528" style="fill:var(--color17, #ffd528)" d="M22.477 8.798c0 1.449-2.508 2.659-5.605 2.659s-5.605-1.192-5.605-2.659c0-1.467 2.508-2.659 5.605-2.659s5.605 1.188 5.605 2.658z"/><path fill="#fce68e" style="fill:var(--color14, #fce68e)" d="M16.872 11.214c-3.009 0-5.466-1.127-5.597-2.535a.58.58 0 0 0 0 .125v-.003c0 1.449 2.508 2.659 5.604 2.659s5.605-1.192 5.605-2.659v-.123c-.146 1.409-2.603 2.535-5.612 2.535z"/><path fill="#f69221" style="fill:var(--color15, #f69221)" d="M16.295 7.447v-.206h.731v.206c.647.061.98.297.98.674v.087h-.848v-.116c0-.196-.164-.272-.453-.272s-.457.076-.457.272c0 .569 1.784.594 1.784 1.384 0 .362-.34.611-.987.677v.199h-.731v-.199c-.654-.065-.987-.304-.987-.677v-.192h.863v.221c0 .196.183.264.475.264s.471-.069.471-.264c0-.568-1.784-.598-1.784-1.383-.018-.355.304-.609.943-.674z"/><path fill="#fcbc17" style="fill:var(--color16, #fcbc17)" d="M16.701 7.447v-.206h.731v.206c.647.061.98.297.98.674v.087h-.863v-.116c0-.196-.165-.272-.457-.272s-.457.076-.457.272c0 .569 1.788.594 1.788 1.384 0 .362-.34.611-.987.677v.199h-.731v-.199c-.654-.065-.987-.304-.987-.677v-.192h.863v.221c0 .196.183.264.471.264s.475-.069.475-.264c-.004-.568-1.806-.598-1.806-1.376 0-.362.34-.616.98-.681z"/><path fill="#fff" style="fill:var(--color8, #fff)" opacity=".3" d="m16.872 6.139-.132-.001a9.938 9.938 0 0 0-3.45.614l.069-.022 6.537 4.296c1.55-.475 2.581-1.297 2.581-2.235 0-1.463-2.508-2.651-5.605-2.651z"/><path fill="#fff" style="fill:var(--color8, #fff)" d="M6.015 16.061h20.338c.46 0 .901.181 1.226.503s.507.759.507 1.214v12.016a1.726 1.726 0 0 1-1.725 1.713H6.014c-.477 0-.91-.192-1.224-.503a1.703 1.703 0 0 1-.507-1.214V17.773c0-.474.194-.903.507-1.211.313-.309.742-.5 1.217-.5h.008z"/><path fill="#f2706c" style="fill:var(--color18, #f2706c)" d="M23 27.38c0 .488-.146.965-.419 1.37a2.5 2.5 0 0 1-1.1.902l-.016.006a2.514 2.514 0 0 1-1.455.138l.016.003a2.503 2.503 0 0 1-1.275-.675 2.453 2.453 0 0 1-.678-1.247l-.003-.016a2.437 2.437 0 0 1 .148-1.442l-.006.016c.188-.451.507-.836.917-1.107a2.481 2.481 0 0 1 1.383-.416c.687 0 1.309.276 1.761.723.449.445.727 1.062.729 1.743z"/><path fill="#8fd7f1" style="fill:var(--color19, #8fd7f1)" d="M25.486 27.38c0 .488-.146.965-.42 1.371a2.5 2.5 0 0 1-1.102.902l-.016.006a2.504 2.504 0 0 1-2.714-.536 2.463 2.463 0 0 1-.678-1.248l-.003-.016a2.43 2.43 0 0 1 .15-1.441l-.006.016a2.484 2.484 0 0 1 2.297-1.519H23c.686 0 1.307.276 1.759.723.448.445.726 1.062.727 1.744z"/><path fill="#4a4a4a" style="fill:var(--color20, #4a4a4a)" d="M28.082 19.509h-23.8v2.742h23.8v-2.742z"/><path fill="#c9c9c9" style="fill:var(--color21, #c9c9c9)" d="M14.723 24.913H6.381v.895h8.343v-.895zm0 2.018H6.381v.899h8.343v-.899zm0 2.017H6.381v.895h8.343v-.895z"/></symbol><symbol id="icon-bank" viewBox="0 0 36 32"><path fill="#c4f7f7" style="fill:var(--color22, #c4f7f7)" d="M21.517 27.571H8.548v2.212h12.969v-2.212z"/><path fill="#97efec" style="fill:var(--color23, #97efec)" d="M32.038 27.571H21.517v2.212h12.965v-2.212h-2.444zm-23.49 2.212H7.035V32h14.483v-2.217H8.549z"/><path fill="#70efeb" style="fill:var(--color24, #70efeb)" d="M21.517 29.783V32H36v-2.217H21.517z"/><path fill="#64bdc5" style="fill:var(--color25, #64bdc5)" d="M19.253 13.359h.002c.242 0 .461.101.617.262.157.161.253.38.253.623v.011-.001.005a.9.9 0 0 1-.254.628.87.87 0 0 1-.619.262h-.212l.349 12.409h2.115v-14.2h-2.253z"/><path fill="#49b2b7" style="fill:var(--color26, #49b2b7)" d="M27.14 14.255v.005a.905.905 0 0 1-.254.629.87.87 0 0 1-.619.262h-.19l.349 12.409h4.205l.349-12.409h-.192a.858.858 0 0 1-.618-.262.89.89 0 0 1-.254-.623v-.01.001-.004c0-.244.097-.466.254-.629a.871.871 0 0 1 .62-.263h-4.524.002c.242 0 .461.101.617.262.157.161.253.38.253.623v.011-.001zm-3.173.912h-.165a.865.865 0 0 1-.62-.262.895.895 0 0 1-.257-.629v-.02a.91.91 0 0 1 .252-.629.877.877 0 0 1 .626-.269h-2.285V27.57h2.116l.333-12.404z"/><path fill="#64bdc5" style="fill:var(--color25, #64bdc5)" d="M16.767 15.167h-.022a.89.89 0 0 1-.877-.891v-.006c0-.237.092-.465.257-.633s.388-.262.621-.262h-4.507a.87.87 0 0 1 .621.262.903.903 0 0 1 .188.982l.002-.006a.9.9 0 0 1-.469.482l-.006.002a.867.867 0 0 1-.336.069h-.185l.344 12.409h4.231l.344-12.409h-.207z"/><path fill="#c4f7f7" style="fill:var(--color22, #c4f7f7)" d="M10.997 13.359h10.521V11.87H11.495l10.023-7.991V1.818L7.036 13.359h3.962z"/><path fill="#97efec" style="fill:var(--color23, #97efec)" d="m21.597 3.82 9.945 8.05H21.518v1.489h14.483L21.63 1.727l-.111.091V3.88l.08-.06z"/><path fill="#70efeb" style="fill:var(--color24, #70efeb)" d="m21.597 3.82-.079.059v7.991h10.024l-9.945-8.05z"/><path fill="#97efec" style="fill:var(--color23, #97efec)" d="M11.494 11.87h10.023V3.879L11.494 11.87zm-1.01 1.489h-.731a.867.867 0 0 0-.62.263.9.9 0 0 0-.188.982l-.002-.006c.091.219.259.39.47.482l.006.002c.107.045.22.068.335.068h.185l-.343 12.409h1.401v-14.2h-.513z"/><path fill="#70efeb" style="fill:var(--color24, #70efeb)" d="M12.24 15.167h.001a.86.86 0 0 0 .619-.262.895.895 0 0 0 .257-.629v-.005a.908.908 0 0 0-.257-.633.867.867 0 0 0-.621-.262h-1.243v14.195h1.402l-.344-12.41.185.006z"/><path fill="#97efec" style="fill:var(--color23, #97efec)" d="M16.767 13.359h-.022a.857.857 0 0 0-.612.255.894.894 0 0 0-.265.636v.005c0 .246.098.47.258.634.158.161.377.26.62.262h.186l-.344 12.409h1.401v-14.2h-1.222z"/><path fill="#70efeb" style="fill:var(--color24, #70efeb)" d="M19.253 15.167h.002a.858.858 0 0 0 .618-.262.888.888 0 0 0 .253-.623v-.011.001-.005a.905.905 0 0 0-.254-.629.87.87 0 0 0-.62-.262h-1.243v14.195h1.402l-.349-12.41.191.006zm3.65-.912v.014c0 .248.099.473.26.637.159.161.379.26.623.26H23.988l-.344 12.41h1.401V13.359H23.78a.857.857 0 0 0-.612.255.895.895 0 0 0-.265.636v.006z"/><path fill="#64bdc5" style="fill:var(--color25, #64bdc5)" d="m26.447 27.571-.349-12.41h.192c.242 0 .461-.1.617-.262a.89.89 0 0 0 .254-.624v-.01.001-.005a.9.9 0 0 0-.254-.628.87.87 0 0 0-.62-.262h-1.264v14.2h1.423z"/><path fill="#70efeb" style="fill:var(--color24, #70efeb)" d="M29.917 14.255v.005a.9.9 0 0 0 .254.628.87.87 0 0 0 .62.262h.19l-.349 12.409h1.407v-14.2h-1.25c-.242 0-.461.1-.617.262a.89.89 0 0 0-.254.623v.01-.001z"/><path fill="#64bdc5" style="fill:var(--color25, #64bdc5)" d="M32.551 27.571h.889l-.349-12.41h.193c.242 0 .461-.1.617-.262a.888.888 0 0 0 .253-.623v-.011.001-.005a.9.9 0 0 0-.254-.628.87.87 0 0 0-.619-.262h-.73v14.2zm0-14.212h-.513v14.207h.513V13.359z"/><path fill="#8feaf9" style="fill:var(--color27, #8feaf9)" d="M9.547 15.495h1.449v-2.158H9.547c-.28 0-.549.113-.748.316-.192.196-.31.465-.31.761v.002c0 .286.112.56.31.763s.467.316.748.316z"/><path fill="#97efec" style="fill:var(--color23, #97efec)" d="M12.447 15.495h-1.45v-2.158h1.449c.28 0 .55.113.748.316a1.093 1.093 0 0 1 0 1.526c-.19.195-.455.316-.748.316z"/><path fill="#8feaf9" style="fill:var(--color27, #8feaf9)" d="M16.561 15.495h1.449v-2.158h-1.449c-.28 0-.549.113-.748.316-.192.196-.31.465-.31.761v.002c0 .286.112.56.31.763s.467.316.748.316z"/><path fill="#97efec" style="fill:var(--color23, #97efec)" d="M19.46 15.495h-1.449v-2.158h1.449c.28 0 .55.113.748.316a1.093 1.093 0 0 1 0 1.526c-.19.195-.455.316-.748.316z"/><path fill="#70efeb" style="fill:var(--color24, #70efeb)" d="M23.575 15.495h1.449v-2.158h-1.449c-.281 0-.55.113-.748.316-.192.196-.31.465-.31.761v.002c0 .286.111.56.31.763.19.195.455.316.748.316z"/><path fill="#64bdc5" style="fill:var(--color25, #64bdc5)" d="M26.447 15.495h-1.422v-2.158h1.423c.28 0 .549.113.748.316s.31.477.31.763c0 .286-.111.56-.31.763-.19.195-.455.316-.748.316z"/><path fill="#70efeb" style="fill:var(--color24, #70efeb)" d="M30.583 15.495h1.449v-2.158h-1.449c-.28 0-.549.113-.748.316a1.088 1.088 0 0 0-.309.761v.003c0 .286.111.56.309.763s.468.316.748.316z"/><path fill="#64bdc5" style="fill:var(--color25, #64bdc5)" d="M33.482 15.495h-1.449v-2.158h1.449c.281 0 .55.113.748.316a1.093 1.093 0 0 1 0 1.526c-.19.195-.455.316-.748.316z"/><path fill="#ffa121" style="fill:var(--color28, #ffa121)" d="M2.549 9.712V6.28a4.962 4.962 0 0 0 2.177-1.299l.001-.001a5.086 5.086 0 0 0 1.262-2.187l.008-.036h3.941V.48H4.342v.194a3.803 3.803 0 0 1-1.085 2.665l.001-.001A3.654 3.654 0 0 1 .64 4.445H.47v5.096c0 1.9.378 3.712 1.064 5.364l-.034-.093a13.846 13.846 0 0 0 2.95 4.487l-.002-.002 5.321 5.427h.169v-2.74l-4.12-4.182a11.43 11.43 0 0 1-2.399-3.637l-.028-.076a11.397 11.397 0 0 1-.843-4.339v-.043.002z"/><path fill="#f7bd6d" style="fill:var(--color29, #f7bd6d)" d="M4.449 19.299a13.807 13.807 0 0 1-2.918-4.401l-.034-.091C.848 13.25.47 11.441.47 9.544V9.5v.002V4.43h.185a3.658 3.658 0 0 0 2.617-1.105l.001-.001A3.803 3.803 0 0 0 4.358.659V.481h5.58v-.48H3.871V.67c0 .902-.36 1.72-.944 2.318l.001-.001a3.18 3.18 0 0 1-2.273.962h-.656V9.546c0 1.963.39 3.834 1.097 5.541l-.035-.096a14.311 14.311 0 0 0 3.055 4.65l-.002-.002 5.459 5.568h.365v-.48h-.169l-5.321-5.428z"/><path fill="#fff7ab" style="fill:var(--color30, #fff7ab)" d="M3.11 11.74a11.036 11.036 0 0 1-.185-2.027V6.56a5.374 5.374 0 0 0 2.066-1.31l.001-.001a5.501 5.501 0 0 0 1.275-2.07l.011-.039h3.66v-.383h-3.94A5.092 5.092 0 0 1 4.727 4.98a4.942 4.942 0 0 1-2.143 1.291l-.035.009v3.471c0 1.564.31 3.055.871 4.417l-.028-.077a11.468 11.468 0 0 0 2.429 3.715l-.002-.002 4.099 4.176v-.54l-3.83-3.906a11.045 11.045 0 0 1-2.968-5.727l-.01-.068z"/><path fill="#fb6f05" style="fill:var(--color31, #fb6f05)" d="M6.279 3.14a5.516 5.516 0 0 1-1.287 2.11l.001-.001a5.348 5.348 0 0 1-2.03 1.299l-.037.012v3.151c0 .684.062 1.367.185 2.039a11.084 11.084 0 0 0 3.002 5.802l3.827 3.905V3.14H6.28z"/><path fill="#eb8e11" style="fill:var(--color32, #eb8e11)" d="M17.323 9.712V6.28a4.962 4.962 0 0 1-2.177-1.299l-.001-.001a5.086 5.086 0 0 1-1.262-2.187l-.009-.036H9.939V.48h5.591v.189c0 1.001.39 1.962 1.084 2.67a3.654 3.654 0 0 0 2.618 1.107h.18V9.559c0 1.897-.377 3.706-1.061 5.356l.034-.093a13.847 13.847 0 0 1-2.953 4.495l.002-.002-5.332 5.411h-.164v-2.74l4.094-4.182a11.417 11.417 0 0 0 2.41-3.636l.028-.076c.539-1.291.852-2.79.852-4.363v-.02.001z"/><path fill="#ffa121" style="fill:var(--color28, #ffa121)" d="M15.424 19.299a13.807 13.807 0 0 0 2.918-4.401l.034-.091c.649-1.557 1.027-3.366 1.027-5.263V9.5v.002V4.43h-.18a3.657 3.657 0 0 1-2.617-1.105l-.001-.001A3.801 3.801 0 0 1 15.52.659V.48H9.94V0h6.061v.669c0 .903.361 1.722.946 2.321l-.001-.001a3.18 3.18 0 0 0 2.276.96h.651V9.546c0 1.963-.39 3.834-1.097 5.541l.035-.096a14.311 14.311 0 0 1-3.055 4.65l.002-.002-5.459 5.568h-.36v-.48h.164l5.321-5.428z"/><path fill="#f7bd6d" style="fill:var(--color29, #f7bd6d)" d="M16.762 11.74c.115-.669.171-1.349.164-2.028V6.56a5.372 5.372 0 0 1-2.054-1.314l-.001-.001a5.493 5.493 0 0 1-1.266-2.066l-.011-.039H9.939v-.383h3.935c.229.84.667 1.606 1.271 2.223a4.942 4.942 0 0 0 2.143 1.291l.035.009v3.45c0 1.573-.313 3.072-.88 4.439l.028-.077a11.473 11.473 0 0 1-2.439 3.713L9.94 21.979v-.54l3.813-3.9a11.072 11.072 0 0 0 2.999-5.731l.011-.069z"/><path fill="#e55c00" style="fill:var(--color33, #e55c00)" d="M13.593 3.14H9.938v18.307l3.813-3.907a11.067 11.067 0 0 0 2.983-5.732l.011-.068c.114-.605.18-1.301.18-2.012v-.017.001V6.56a5.372 5.372 0 0 1-2.054-1.314l-.001-.001a5.493 5.493 0 0 1-1.266-2.066l-.011-.039z"/></symbol><symbol id="icon-note" viewBox="0 0 25 32"><path fill="#ad633c" style="fill:var(--color34, #ad633c)" d="M23.015 2.88H1.944c-.535 0-1.02.215-1.373.562-.352.346-.57.826-.57 1.358v25.28c0 .509.205.997.57 1.357.353.348.839.563 1.374.563H23.016a1.954 1.954 0 0 0 1.375-.563c.352-.345.57-.825.57-1.356V4.8a1.908 1.908 0 0 0-.569-1.357 1.952 1.952 0 0 0-1.374-.563h-.001z"/><path fill="#964f2f" style="fill:var(--color35, #964f2f)" d="M22.367 4.8H3.89a.972.972 0 0 0-.972.96v23.68c0 .254.102.499.285.678s.429.282.687.282h18.477a.978.978 0 0 0 .688-.282.952.952 0 0 0 .285-.678V5.76a.947.947 0 0 0-.285-.678.977.977 0 0 0-.687-.282z"/><path fill="#fff" style="fill:var(--color8, #fff)" d="M21.07 4.8H3.89a.972.972 0 0 0-.972.96v22.4c0 .255.102.499.285.678s.429.282.687.282h17.18a.976.976 0 0 0 .688-.282.953.953 0 0 0 .285-.678V5.76a.951.951 0 0 0-.285-.679.977.977 0 0 0-.687-.282h-.001z"/><path fill="#e25d30" style="fill:var(--color36, #e25d30)" d="M19.398 9.517H9.277v1.28h10.121v-1.28z"/><path fill="#73c0c6" style="fill:var(--color37, #73c0c6)" d="M19.398 14.08H9.277v1.28h10.121v-1.28z"/><path fill="#b3dbe7" style="fill:var(--color38, #b3dbe7)" d="M19.125 5.439V4.283a2.366 2.366 0 0 0-2.366-2.363H7.878a2.366 2.366 0 0 0-2.367 2.363V5.44h13.614z"/><path fill="#b3dbe7" style="fill:var(--color38, #b3dbe7)" d="M9.401 3.2v-.839c0-.772.625-1.399 1.397-1.402h3.04a1.402 1.402 0 0 1 1.398 1.402v.838h.973v-.837a2.367 2.367 0 0 0-2.367-2.363h-3.048a2.366 2.366 0 0 0-2.366 2.363v.837h.973z"/><path fill="#73c0c6" style="fill:var(--color37, #73c0c6)" d="M19.398 18.56H9.277v1.28h10.121v-1.28z"/><path fill="#e25d30" style="fill:var(--color36, #e25d30)" d="M7.971 10.531a2.01 2.01 0 0 1-.609.999l-.002.002a2.053 2.053 0 0 1-1.366.517c-.318 0-.619-.072-.887-.2l.012.005a2.053 2.053 0 0 1-.87-.778l-.005-.009a1.973 1.973 0 0 1-.287-1.03c0-.454.152-.872.408-1.207l-.004.005c.24-.315.564-.555.938-.689l.014-.004a2.036 2.036 0 0 1 1.196-.051l-.014-.003c.533.136.972.467 1.245.912l.005.009c.18.294.287.649.287 1.029 0 .175-.023.346-.065.508l.003-.014z"/><path fill="#fff" style="fill:var(--color8, #fff)" d="M5.7 11.187a.383.383 0 0 1-.256-.103l-.765-.698a.384.384 0 0 1 .25-.667h.015c.102 0 .195.039.265.103l.481.441.941-.982a.388.388 0 0 1 .427-.098l-.003-.001a.39.39 0 0 1 .217.201l.001.002a.381.381 0 0 1-.077.424L5.99 11.065a.386.386 0 0 1-.282.121h-.01z"/><path fill="#73c0c6" style="fill:var(--color37, #73c0c6)" d="M7.501 15.151a1.533 1.533 0 0 1-.465.763 1.567 1.567 0 0 1-1.718.243l.01.004a1.556 1.556 0 0 1-.664-.594l-.004-.007a1.498 1.498 0 0 1-.219-.786c0-.346.116-.665.311-.92l-.003.004a1.551 1.551 0 0 1 1.246-.617c.135 0 .267.017.392.049l-.011-.002c.399.1.742.352.954.701s.273.768.172 1.162zm0 4.558c-.075.294-.237.56-.465.764a1.567 1.567 0 0 1-1.718.243l.01.004a1.556 1.556 0 0 1-.664-.594l-.004-.007a1.498 1.498 0 0 1-.219-.786c0-.346.116-.665.311-.92l-.003.004a1.551 1.551 0 0 1 1.245-.617c.136 0 .267.017.393.049l-.011-.002c.399.1.742.352.954.701s.273.768.172 1.162zm0 4.56a1.526 1.526 0 0 1-.465.762 1.565 1.565 0 0 1-1.718.242l.009.004a1.56 1.56 0 0 1-.664-.593l-.004-.007a1.498 1.498 0 0 1-.219-.786c0-.346.116-.665.311-.92l-.003.004a1.551 1.551 0 0 1 1.246-.617c.135 0 .267.017.392.049l-.011-.002c.399.1.742.352.954.702s.273.767.172 1.162zm11.897-.909H9.277v1.28h10.121v-1.28z"/></symbol></defs></svg>