<svg width="158" height="28" fill="none" xmlns="http://www.w3.org/2000/svg"><path d="M13.524.746a.5.5 0 0 1 .834 0l4.315 6.503a.5.5 0 0 0 .282.205l7.519 2.095a.5.5 0 0 1 .258.792l-4.852 6.114a.5.5 0 0 0-.108.332l.332 7.798a.5.5 0 0 1-.675.49l-7.313-2.726a.5.5 0 0 0-.35 0l-7.313 2.725a.5.5 0 0 1-.674-.49l.332-7.797a.5.5 0 0 0-.108-.332L1.15 10.34a.5.5 0 0 1 .257-.792l7.519-2.095a.5.5 0 0 0 .282-.205L13.525.746Z" fill="url(#a)"/><path d="m38.924 16.144-.392.31.392-.31-4.852-6.114 7.518-2.094a1 1 0 0 0 .565-.41l4.316-6.504 4.315 6.504a1 1 0 0 0 .564.41l7.52 2.094-4.853 6.114a1 1 0 0 0-.216.664l.332 7.798-7.313-2.725a1 1 0 0 0-.699 0l-7.313 2.725.331-7.798a1 1 0 0 0-.215-.664ZM71.453 16.144l-.392.31.392-.31L66.6 10.03l7.519-2.094a1 1 0 0 0 .565-.41L79 1.022l4.315 6.504a1 1 0 0 0 .565.41l7.519 2.094-4.852 6.114a1 1 0 0 0-.216.664l.332 7.798-7.314-2.725a1 1 0 0 0-.698 0l-7.314 2.725.332-7.798a1 1 0 0 0-.216-.664ZM103.982 16.144l-.391.31.391-.31-4.852-6.114 7.519-2.094a.999.999 0 0 0 .565-.41l4.315-6.504 4.315 6.504c.133.2.334.346.565.41l7.519 2.094-4.852 6.114a1.004 1.004 0 0 0-.216.664l.332 7.798-7.314-2.725a1 1 0 0 0-.698 0l-7.314 2.725.332-7.798a.998.998 0 0 0-.216-.664ZM136.512 16.144l-.392.31.392-.31-4.852-6.114 7.519-2.094c.231-.064.432-.21.565-.41l4.315-6.504 4.315 6.504c.133.2.333.346.565.41l7.519 2.094-4.852 6.114a.998.998 0 0 0-.216.664l.332 7.798-7.314-2.725a1 1 0 0 0-.698 0l-7.314 2.725.332-7.798c.01-.24-.067-.476-.216-.664Z" fill="#000" fill-opacity=".25" stroke="#231C6C"/><defs><linearGradient id="a" x1="13.941" y1="5.595" x2="19.912" y2="17.249" gradientUnits="userSpaceOnUse"><stop stop-color="#FFF500"/><stop offset="1" stop-color="#EE8F00"/></linearGradient></defs></svg>