<svg aria-hidden="true" style="position: absolute; width: 0; height: 0; overflow: hidden;" version="1.1" xmlns="http://www.w3.org/2000/svg" xmlns:xlink="http://www.w3.org/1999/xlink">
<defs>
<symbol id="icon-Star1" viewBox="0 0 32 32">

<path     d="M15.414 0.918c0.112-0.167 0.3-0.276 0.513-0.276s0.401 0.109 0.512 0.274l0.001 0.002 5.311 8.004c0.081 0.121 0.202 0.211 0.343 0.251l0.004 0.001 9.254 2.578c0.262 0.075 0.45 0.312 0.45 0.593 0 0.145-0.050 0.278-0.134 0.383l0.001-0.001-5.972 7.525c-0.083 0.104-0.133 0.237-0.133 0.383 0 0.009 0 0.018 0.001 0.027l-0-0.001 0.409 9.598c0 0.008 0.001 0.017 0.001 0.027 0 0.34-0.276 0.615-0.615 0.615-0.078 0-0.152-0.014-0.22-0.041l0.004 0.001-9.001-3.355c-0.064-0.025-0.138-0.039-0.215-0.039s-0.151 0.014-0.22 0.040l0.004-0.001-9.001 3.354c-0.064 0.024-0.138 0.039-0.215 0.039-0.34 0-0.615-0.276-0.615-0.615 0-0.009 0-0.018 0.001-0.028l-0 0.001 0.409-9.596c0-0.008 0.001-0.017 0.001-0.026 0-0.145-0.050-0.279-0.134-0.384l0.001 0.001-5.973-7.526c-0.083-0.104-0.133-0.237-0.133-0.382 0-0.281 0.188-0.518 0.445-0.591l0.004-0.001 9.254-2.578c0.145-0.042 0.266-0.131 0.346-0.25l0.001-0.002 5.313-8.002z"></path>
</symbol>
<symbol id="icon-Star2" viewBox="0 0 33 32">
<path stroke-linejoin="miter" stroke-linecap="butt" stroke-miterlimit="4" stroke-width="1.2308"  stroke="#91bdff" opacity="0.25"  d="M16.578 1.258l5.311 8.005c0.163 0.243 0.405 0.422 0.688 0.502l0.009 0.002 9.253 2.577-5.972 7.525c-0.166 0.208-0.266 0.474-0.266 0.764 0 0.019 0 0.037 0.001 0.056l-0-0.003 0.407 9.598-9.001-3.354c-0.128-0.049-0.276-0.078-0.43-0.078s-0.302 0.028-0.439 0.080l0.008-0.003-9.001 3.354 0.407-9.598c0.001-0.016 0.001-0.035 0.001-0.053 0-0.29-0.1-0.556-0.268-0.766l0.002 0.003-5.972-7.525 9.253-2.577c0.291-0.083 0.533-0.262 0.693-0.5l0.003-0.004 5.312-8.005z"></path>
</symbol>
</defs>
</svg>
